<?xml version="1.0" standalone="no"?>
<!DOCTYPE svg PUBLIC "-//W3C//DTD SVG 1.1//EN" "http://www.w3.org/Graphics/SVG/1.1/DTD/svg11.dtd" >
<svg xmlns="http://www.w3.org/2000/svg">
<metadata></metadata>
<defs>
<font id="taz_lightregular" horiz-adv-x="1126" >
<font-face units-per-em="2048" ascent="1638" descent="-410" />
<missing-glyph horiz-adv-x="438" />
<glyph unicode="&#xfb01;" horiz-adv-x="972" d="M0 950v92h176v152q0 303 264 303q66 0 117 -14l-10 -88q-54 8 -107 8q-151 0 -151 -203v-158h520v-1042h-111v950h-409v-950h-113v950h-176zM698 1305v170h111v-170h-111z" />
<glyph unicode="&#xfb02;" horiz-adv-x="972" d="M0 950v92h176v148q0 152 87.5 229.5t256.5 77.5q89 0 187 -16l102 16v-1497h-111v1389q-86 14 -186 14q-129 0 -176 -52.5t-47 -168.5v-140h205v-92h-205v-950h-113v950h-176z" />
<glyph unicode="&#xfb03;" horiz-adv-x="1505" d="M0 950v92h176v152q0 303 264 303q67 0 121 -14l-12 -88q-54 8 -109 8q-151 0 -151 -203v-158h422v152q0 303 262 303q70 0 117 -14l-9 -88q-54 8 -108 8q-152 0 -152 -203v-158h522v-1042h-112v950h-410v-950h-110v950h-422v-950h-113v950h-176zM1231 1305v170h112v-170 h-112z" />
<glyph unicode="&#xfb04;" horiz-adv-x="1505" d="M0 950v92h176v152q0 303 264 303q67 0 121 -14l-12 -88q-54 8 -109 8q-151 0 -151 -203v-158h422v148q0 152 87.5 229.5t256.5 77.5q88 0 186 -16l102 16v-1497h-112v1389q-86 14 -184 14q-130 0 -178 -52.5t-48 -168.5v-140h205v-92h-205v-950h-110v950h-422v-950h-113 v950h-176z" />
<glyph horiz-adv-x="0" />
<glyph horiz-adv-x="682" />
<glyph unicode="&#xd;" horiz-adv-x="1024" />
<glyph unicode=" "  horiz-adv-x="438" />
<glyph unicode="&#x09;" horiz-adv-x="438" />
<glyph unicode="&#xa0;" horiz-adv-x="438" />
<glyph unicode="!" horiz-adv-x="589" d="M272 0v168h123v-168h-123zM276 379v1001h117v-1001h-117z" />
<glyph unicode="&#x22;" horiz-adv-x="884" d="M195 948v527h108v-527h-108zM578 948v527h108v-527h-108z" />
<glyph unicode="#" horiz-adv-x="1251" d="M68 397v92h235l49 463h-227v90h235l35 338h107l-33 -338h352l35 338h107l-33 -338h239v-90h-249l-50 -463h240v-92h-250l-39 -397h-106l39 397h-355l-39 -397h-106l39 397h-225zM410 489h354l49 463h-354z" />
<glyph unicode="$" horiz-adv-x="894" d="M104 993q0 99 47 172.5t116.5 110.5t152.5 45v203h100v-203q141 -14 254 -82l-39 -84q-141 74 -272 74q-46 0 -88.5 -12.5t-78.5 -38t-57.5 -69t-21.5 -99.5q0 -50 20.5 -92.5t55 -74t79.5 -60t94.5 -54.5t99 -53t94.5 -60t79.5 -71.5t55 -91t20.5 -115.5 q0 -132 -81.5 -218t-213.5 -112v-246h-100v238q-143 0 -303 68l37 94q131 -64 272 -64q121 0 197.5 61.5t76.5 168.5q0 53 -20.5 97.5t-55 76.5t-79 60t-94 53t-99 50.5t-94 57t-79 68t-55 88.5t-20.5 114z" />
<glyph unicode="%" horiz-adv-x="1406" d="M82 1044q0 101 26.5 176t90 122t159.5 47q265 0 265 -340q0 -153 -68 -247.5t-209 -94.5q-139 0 -201.5 85t-62.5 252zM180 1044q0 -123 37.5 -190.5t134.5 -67.5q62 0 101.5 36.5t55 92.5t15.5 132q0 124 -38 192t-134 68q-172 0 -172 -263zM244 0l811 1380h108 l-809 -1380h-110zM776 332q0 73 16 134t48.5 108t87.5 73.5t127 26.5q264 0 264 -338q0 -155 -68.5 -249.5t-210.5 -94.5q-264 0 -264 340zM877 332q0 -80 13 -133.5t52 -89t105 -35.5q172 0 172 260q0 60 -7.5 104.5t-26 81t-52.5 55.5t-84 19q-172 0 -172 -262z" />
<glyph unicode="&#x26;" horiz-adv-x="1531" d="M141 416q0 134 67 226.5t181 115.5q-90 28 -135 103.5t-45 174.5q0 71 23 133t67 112t117 79t166 29q135 0 301 -66l-29 -86q-143 55 -274 55t-196 -70.5t-65 -179.5q0 -111 63.5 -175t186.5 -64h49v-96h-67q-138 0 -214.5 -74.5t-76.5 -200.5q0 -156 120.5 -249 t352.5 -93q225 0 348 104.5t123 272.5q0 139 -121 338q-107 -55 -221 -127l-43 82q107 71 252.5 141t286.5 121l43 -82q-63 -19 -211 -84q131 -212 131 -371q0 -224 -161 -358.5t-439 -134.5q-277 0 -428.5 115t-151.5 309z" />
<glyph unicode="'" horiz-adv-x="499" d="M195 948v527h110v-527h-110z" />
<glyph unicode="(" horiz-adv-x="651" d="M221 635q0 241 65 483t187 443l94 -21q-235 -426 -235 -911q0 -451 231 -877l-100 -20q-242 414 -242 903z" />
<glyph unicode=")" horiz-adv-x="651" d="M94 -248q234 433 234 912q0 450 -230 878l101 19q241 -418 241 -904q0 -239 -65 -480t-187 -445z" />
<glyph unicode="*" horiz-adv-x="905" d="M121 999l270 131l-270 134l55 94l248 -168l-21 301h111l-22 -301l249 168l56 -92l-271 -131l271 -131l-56 -97l-249 168l22 -297l-111 -2l21 299l-248 -168z" />
<glyph unicode="+" d="M125 563v94h385v418h106v-418h385v-94h-385v-420h-106v420h-385z" />
<glyph unicode="," horiz-adv-x="536" d="M78 -326l180 529l133 -43l-227 -514z" />
<glyph unicode="-" horiz-adv-x="518" d="M78 532v101h381v-101h-381z" />
<glyph unicode="." horiz-adv-x="518" d="M195 0v193h131v-193h-131z" />
<glyph unicode="/" horiz-adv-x="827" d="M33 -297l674 1935h102l-676 -1935h-100z" />
<glyph unicode="0" d="M121 666q0 107 12.5 199t44 181.5t81.5 152.5t130 101.5t184 38.5q431 0 431 -673q0 -106 -12 -198t-44 -182t-81.5 -153t-130.5 -102t-185 -39q-430 0 -430 674zM238 666q0 -576 325 -576q324 0 324 576q0 575 -324 575q-325 0 -325 -575z" />
<glyph unicode="1" horiz-adv-x="700" d="M29 1145l377 188h106v-1333h-117v1210l-336 -153z" />
<glyph unicode="2" horiz-adv-x="1021" d="M92 0v88l387 408q133 137 191.5 253t58.5 230q0 121 -64.5 191.5t-193.5 70.5q-126 0 -328 -108l-34 79q195 127 380 127q171 0 264 -92t93 -250q0 -141 -60.5 -265.5t-203.5 -270.5l-349 -361h674v-100h-815z" />
<glyph unicode="3" horiz-adv-x="1011" d="M70 86l34 84q181 -80 349 -80q85 0 146.5 22.5t94 61.5t47.5 83.5t15 96.5q0 54 -9 94t-33.5 76t-66 58.5t-108 35.5t-158.5 13h-148v96h152q60 0 103 4.5t88 20.5t72.5 44.5t45 78t17.5 118.5q0 115 -55.5 181.5t-192.5 66.5q-144 0 -324 -94l-37 78q87 52 187 83 t192 31q179 0 262.5 -90t83.5 -241q0 -123 -55.5 -211.5t-155.5 -112.5q128 -17 194.5 -100t66.5 -217q0 -165 -110 -270t-321 -105q-192 0 -376 94z" />
<glyph unicode="4" horiz-adv-x="1038" d="M47 274v86l576 971h172v-956h204v-101h-204v-274h-115v274h-633zM166 375h514v856h-2z" />
<glyph unicode="5" horiz-adv-x="1019" d="M76 78l33 90q189 -78 337 -78q181 0 257.5 70t76.5 235q0 70 -10.5 115t-35.5 79.5t-73.5 53t-118 27t-175.5 8.5q-71 0 -197 -12l63 665h584l-10 -100h-485l-41 -459q165 10 280.5 -3.5t181.5 -41.5t102 -81t46 -105.5t10 -132.5q0 -116 -31.5 -197.5t-93.5 -129 t-145 -68.5t-195 -21q-192 0 -360 86z" />
<glyph unicode="6" horiz-adv-x="1064" d="M125 618q0 177 25.5 305.5t84 224.5t159 143.5t245.5 47.5q144 0 250 -36l-19 -89q-145 27 -245 27q-385 0 -385 -518v-2q93 45 172 70.5t166 25.5q86 0 151.5 -18.5t107 -50.5t67.5 -80t36 -101.5t10 -120.5q0 -213 -110.5 -333.5t-319.5 -120.5q-93 0 -161 26t-113 74 t-72 126.5t-38 174t-11 225.5zM242 625q0 -299 63 -417t223 -118q158 0 232 86t74 254q0 52 -5.5 91t-23.5 78.5t-49 64.5t-84.5 41t-126.5 16q-72 0 -157 -28t-146 -68z" />
<glyph unicode="7" horiz-adv-x="919" d="M84 1231v100h772v-88l-545 -1243h-127l553 1231h-653z" />
<glyph unicode="8" horiz-adv-x="1083" d="M123 289q0 69 25 128.5t75 109.5t97.5 84.5t119.5 78.5q-61 36 -104.5 69t-85 77.5t-63 100t-21.5 120.5q0 126 98.5 204t284.5 78h6q180 0 272.5 -71t92.5 -199q0 -63 -21.5 -118t-64 -101t-86.5 -80.5t-107 -73.5q57 -32 96.5 -57t85 -62.5t73.5 -75.5t46.5 -89 t18.5 -109q0 -137 -109 -224t-317 -87h-9q-199 0 -301 78t-102 219zM240 303q0 -105 77 -160t228 -55q147 0 224 55.5t77 149.5q0 40 -11 75.5t-34.5 67t-48 56.5t-65 53t-71 46.5t-79.5 45.5q-59 -35 -91.5 -55t-78 -55t-69 -65t-41 -71.5t-17.5 -87.5zM276 1067 q0 -54 20 -99.5t62.5 -85t82 -67t104.5 -65.5q63 38 100.5 65t79.5 66t62 82.5t20 93.5q0 91 -67.5 138.5t-198.5 47.5q-127 0 -196 -48.5t-69 -127.5z" />
<glyph unicode="9" horiz-adv-x="1064" d="M115 885q0 213 110 333.5t320 120.5q93 0 161 -26t113 -74t72 -126.5t38 -174t11 -225.5q0 -141 -15.5 -250t-52.5 -199.5t-96 -149t-147 -90.5t-205 -32q-137 0 -250 37l19 88q145 -27 247 -27q88 0 155 27t109.5 73t69.5 114t38.5 142t12.5 164v2q-192 -98 -338 -98 q-87 0 -152.5 18.5t-107 50.5t-67 80t-35.5 101.5t-10 120.5zM231 901q0 -52 5.5 -91t23.5 -78.5t49 -64.5t84.5 -41t126.5 -16q72 0 156 28.5t149 70.5q0 202 -28 316.5t-90 165t-170 50.5q-158 0 -232 -86t-74 -254z" />
<glyph unicode=":" horiz-adv-x="632" d="M264 0v193h131v-193h-131zM264 850v192h131v-192h-131z" />
<glyph unicode=";" horiz-adv-x="632" d="M102 -326l181 529l133 -43l-228 -514zM264 850v192h131v-192h-131z" />
<glyph unicode="&#x3c;" d="M143 571v78l797 465v-117l-678 -385l678 -385v-121z" />
<glyph unicode="=" d="M125 365v94h876v-94h-876zM125 760v96h876v-96h-876z" />
<glyph unicode="&#x3e;" d="M186 106v117l678 385l-678 385v121l797 -465v-78z" />
<glyph unicode="?" horiz-adv-x="872" d="M147 1339q152 50 269 50q153 0 239 -76t86 -209q0 -60 -17.5 -112t-45 -89.5t-61 -72.5t-67.5 -68.5t-61.5 -69.5t-45 -83.5t-17.5 -102.5v-127h-115v117q0 62 17 115.5t44.5 93.5t61 76t67 70t61 68.5t44.5 78.5t17 94q0 90 -57 144t-173 54q-102 0 -227 -39zM305 0v168 h125v-168h-125z" />
<glyph unicode="@" horiz-adv-x="1937" d="M207 418q0 235 58.5 424t171 322.5t284 205.5t389.5 72q118 0 214 -17.5t164 -48t119 -77t82 -97.5t50 -117t26 -129t7 -139q0 -148 -29.5 -262t-81 -188t-128 -121.5t-164 -67.5t-195.5 -20h-80l8 131q-95 -74 -163 -109t-126 -35q-93 0 -150 77.5t-57 228.5 q0 152 45.5 289t131.5 224t192 87q58 0 112.5 -38t120.5 -108l37 137h86l-139 -794q63 0 115.5 7.5t102.5 25t89 46t71.5 72t53.5 101t33 135t12 172.5q0 71 -5 126.5t-20.5 114.5t-41 102t-68.5 83t-102 65t-143 39.5t-189 14.5q-198 0 -349 -65t-247 -186.5t-144.5 -289.5 t-48.5 -379q0 -306 141 -449t435 -143h356l-12 -78q-174 -16 -365 -16q-659 0 -659 672zM713 442q0 -102 33.5 -152t87.5 -50q92 0 276 151l74 418q-73 81 -116.5 114t-80.5 33q-67 0 -124 -53t-93 -143q-57 -145 -57 -318z" />
<glyph unicode="A" horiz-adv-x="1048" d="M43 0l408 1380h149l406 -1380h-125l-93 319h-536l-90 -319h-119zM279 416h485l-244 839h-2z" />
<glyph unicode="B" horiz-adv-x="1032" d="M174 0v1378q196 4 262 4q230 0 334 -86t104 -260q0 -122 -61.5 -205.5t-183.5 -107.5q155 -26 219.5 -110t64.5 -222q0 -87 -26.5 -156.5t-83 -123.5t-152.5 -83.5t-227 -29.5q-40 0 -121.5 1t-128.5 1zM289 100q45 -4 137 -4q80 0 142 11.5t101 33.5t65.5 48t39.5 61.5 t18 66t5 68.5q0 64 -16.5 110.5t-59.5 87t-127.5 61t-210.5 20.5q-61 0 -94 -2v-562zM289 764q37 -2 98 -2q92 0 160 14.5t108.5 38t64.5 59.5t32 72.5t8 83.5q0 63 -14.5 106.5t-52 78.5t-108 52t-175.5 17q-59 0 -121 -4v-516z" />
<glyph unicode="C" horiz-adv-x="997" d="M121 686q0 352 130.5 527.5t352.5 175.5q153 0 330 -82l-33 -95q-166 78 -287 78q-179 0 -275.5 -147.5t-96.5 -452.5q0 -325 86.5 -461.5t275.5 -136.5q124 0 307 78l29 -90q-187 -88 -358 -88q-116 0 -199.5 35.5t-143.5 115.5t-89 214.5t-29 328.5z" />
<glyph unicode="D" horiz-adv-x="1167" d="M174 0v1380q192 4 272 4q318 0 458 -168.5t140 -510.5q0 -709 -602 -709q-112 0 -268 4zM291 98q74 -4 153 -4q134 0 228 40t149.5 120.5t80 189.5t24.5 258q0 144 -24 248t-79 181.5t-150 116t-233 38.5q-55 0 -149 -4v-1184z" />
<glyph unicode="E" horiz-adv-x="872" d="M174 0v1380h604v-98h-487v-520h442v-98h-442v-566h493v-98h-610z" />
<glyph unicode="F" horiz-adv-x="835" d="M174 0v1380h576v-98h-459v-522h426v-98h-426v-662h-117z" />
<glyph unicode="G" horiz-adv-x="1103" d="M121 676q0 713 512 713q76 0 169.5 -22.5t158.5 -53.5l-31 -90q-163 67 -289 67q-206 0 -302.5 -147t-96.5 -463q0 -219 40 -348.5t120 -184.5t212 -55q116 0 234 47v496h115v-555q-79 -41 -177 -64.5t-188 -23.5q-123 0 -209 34t-147.5 112.5t-91 211.5t-29.5 326z" />
<glyph unicode="H" horiz-adv-x="1212" d="M174 0v1380h117v-616h631v616h114v-1380h-114v664h-631v-664h-117z" />
<glyph unicode="I" horiz-adv-x="464" d="M174 0v1380h117v-1380h-117z" />
<glyph unicode="J" horiz-adv-x="661" d="M-10 16l6 95q121 -19 190 -19q48 0 82 19t54 49t31 78.5t14.5 95.5t3.5 112v934h116v-944q0 -221 -67 -331.5t-221 -110.5q-113 0 -209 22z" />
<glyph unicode="K" horiz-adv-x="915" d="M174 0v1380h117v-657h6l416 657h139l-438 -663l489 -717h-147l-459 698h-6v-698h-117z" />
<glyph unicode="L" horiz-adv-x="727" d="M174 0v1380h117v-1280h418v-100h-535z" />
<glyph unicode="M" horiz-adv-x="1536" d="M127 0l98 1380h187l356 -1147h2l356 1147h187l96 -1380h-115l-86 1276h-2l-399 -1276h-82l-399 1276h-2l-86 -1276h-111z" />
<glyph unicode="N" horiz-adv-x="1208" d="M174 0v1380h170l580 -1224v1224h108v-1380h-153l-596 1253v-1253h-109z" />
<glyph unicode="O" horiz-adv-x="1267" d="M121 684q0 705 510 705h12q270 0 387 -163.5t117 -531.5q0 -702 -508 -702h-14q-270 0 -387 163t-117 529zM238 690q0 -144 19 -249t63.5 -186.5t123.5 -123t193 -41.5q210 0 301.5 151t91.5 451q0 142 -19 247t-63.5 186.5t-123.5 123t-193 41.5q-210 0 -301.5 -150.5 t-91.5 -449.5z" />
<glyph unicode="P" horiz-adv-x="1013" d="M174 0v1378q102 4 328 4t330 -108.5t104 -315.5q0 -199 -118.5 -315.5t-340.5 -116.5q-125 0 -186 2v-528h-117zM291 631q129 -6 188 -6q93 0 159.5 23.5t104.5 68t55 102.5t17 133q0 80 -14.5 137.5t-50.5 103t-102.5 68.5t-164.5 23q-90 0 -192 -4v-649z" />
<glyph unicode="Q" horiz-adv-x="1267" d="M121 684q0 705 510 705h12q270 0 387 -163.5t117 -531.5q0 -317 -109 -497l197 -211l-76 -76l-188 203q-121 -121 -332 -121h-14q-270 0 -387 163t-117 529zM238 690q0 -144 19.5 -249.5t64 -187t123.5 -122.5t192 -41q169 0 260 98l-178 191l78 78l161 -176 q72 141 72 411q0 142 -19 247t-63.5 186.5t-123.5 123t-193 41.5q-210 0 -301.5 -150.5t-91.5 -449.5z" />
<glyph unicode="R" horiz-adv-x="1042" d="M174 0v1378q106 4 315 4q224 0 323 -88t99 -254q0 -140 -79 -233.5t-222 -114.5l359 -692h-135l-340 674h-203v-674h-117zM291 770h198q157 0 229.5 70.5t72.5 191.5q0 62 -13.5 106t-47 78t-95 51t-152.5 17q-74 0 -192 -4v-510z" />
<glyph unicode="S" horiz-adv-x="933" d="M106 1053q0 150 99.5 243t275.5 93q173 0 318 -84l-41 -82q-142 67 -275 67q-127 0 -194.5 -61.5t-67.5 -163.5q0 -53 21.5 -97.5t58 -77t83.5 -61.5t99.5 -56t104.5 -55t99 -62.5t83.5 -75t58 -97.5t21.5 -125q0 -171 -105 -268.5t-290 -97.5q-175 0 -334 92l39 88 q157 -80 293 -80t208 66.5t72 185.5q0 56 -21.5 103.5t-57.5 82t-83.5 65.5t-99 58t-103.5 55t-99.5 61.5t-83.5 72.5t-57.5 93t-21.5 118z" />
<glyph unicode="T" horiz-adv-x="851" d="M16 1280v100h822v-100h-355v-1280h-114v1280h-353z" />
<glyph unicode="U" horiz-adv-x="1198" d="M174 403v977h117v-974q0 -164 70 -240t239 -76q90 0 151.5 21t95 64.5t47 98.5t13.5 132v974h117v-968q0 -92 -23.5 -166.5t-73.5 -132.5t-135 -89.5t-200 -31.5q-217 0 -317.5 101.5t-100.5 309.5z" />
<glyph unicode="V" horiz-adv-x="1046" d="M43 1380h125l326 -1128l32 -137l35 139l322 1126h121l-410 -1380h-145z" />
<glyph unicode="W" horiz-adv-x="1593" d="M37 1380h125l239 -1093l27 -162h2l33 156l260 1099h154l260 -1093l30 -162h2l29 160l238 1095h120l-313 -1380h-156l-253 1067l-37 180h-2l-37 -180l-254 -1067h-158z" />
<glyph unicode="X" horiz-adv-x="1021" d="M45 0l397 725l-348 655h131l238 -450l47 -99h2l55 109l228 440h133l-350 -645l397 -735h-139l-279 530l-47 99h-2l-45 -86l-283 -543h-135z" />
<glyph unicode="Y" horiz-adv-x="944" d="M20 1380h134l178 -364l145 -303l129 274l191 393h129l-396 -786v-594h-112v594z" />
<glyph unicode="Z" horiz-adv-x="915" d="M88 0v90l594 1192h-588v98h711v-86l-596 -1194h618v-100h-739z" />
<glyph unicode="[" horiz-adv-x="739" d="M176 -389v2027h408v-94h-297v-1839h303v-94h-414z" />
<glyph unicode="\" horiz-adv-x="827" d="M18 1638h103l674 -1935h-103z" />
<glyph unicode="]" horiz-adv-x="739" d="M152 -295h303v1839h-299v94h407v-2027h-411v94z" />
<glyph unicode="^" d="M141 756l367 628h113l372 -628h-139l-291 524l-293 -524h-129z" />
<glyph unicode="_" horiz-adv-x="1024" d="M0 -307h1024v-92h-1024v92z" />
<glyph unicode="`" horiz-adv-x="712" d="M135 1442l103 55l235 -285l-74 -38z" />
<glyph unicode="a" horiz-adv-x="983" d="M100 293q0 149 124.5 222t396.5 73h90v47q0 64 -5 109t-19.5 87.5t-41 68t-70.5 41t-106 15.5q-111 0 -297 -63l-22 86q194 72 335 72q180 0 258 -90t78 -289v-672h-88l-14 152q-110 -95 -183.5 -127.5t-168.5 -32.5q-119 0 -193 84t-74 217zM217 301q0 -91 47.5 -151 t128.5 -60t148.5 34.5t169.5 127.5v244h-103q-154 0 -240.5 -22.5t-118.5 -63t-32 -109.5z" />
<glyph unicode="b" horiz-adv-x="993" d="M164 0v1481l110 16v-598q98 85 167 118.5t139 33.5q141 0 223 -146t82 -381q0 -247 -92.5 -389.5t-237.5 -142.5q-118 0 -289 158l-14 -150h-88zM274 254q173 -164 269 -164q99 0 164 121.5t65 308.5q0 190 -58 310t-159 120q-113 0 -281 -159v-537z" />
<glyph unicode="c" horiz-adv-x="770" d="M111 510q0 270 100 405.5t270 135.5q128 0 242 -93l-41 -79q-98 73 -199 73q-119 0 -189.5 -103t-70.5 -329q0 -117 20.5 -203t56.5 -133.5t79 -69.5t94 -22q105 0 223 74l41 -74q-124 -100 -282 -100q-45 0 -84 9.5t-79.5 31t-72 60.5t-56.5 94.5t-38.5 138t-13.5 184.5 z" />
<glyph unicode="d" horiz-adv-x="995" d="M111 518q0 248 91.5 390.5t237.5 142.5q112 0 279 -148v578l112 16v-1497h-90l-14 152q-104 -91 -173.5 -125.5t-139.5 -34.5q-140 0 -221.5 145t-81.5 381zM221 522q0 -190 59 -311t160 -121q108 0 279 162v539q-168 159 -266 159q-100 0 -166 -120.5t-66 -307.5z" />
<glyph unicode="e" horiz-adv-x="950" d="M109 514q0 258 101 397.5t282 139.5q162 0 254 -121.5t92 -317.5q0 -58 -4 -116h-611q0 -210 66.5 -308t206.5 -98q55 0 138.5 13t151.5 34l23 -78q-177 -67 -330 -67q-191 0 -280.5 120.5t-89.5 401.5zM223 588h502v20q0 70 -13 130t-40.5 110t-76 79t-114.5 29 q-68 0 -119 -32t-79.5 -87t-43 -116.5t-16.5 -132.5z" />
<glyph unicode="f" horiz-adv-x="536" d="M0 950v92h176v152q0 303 264 303q67 0 121 -14l-12 -88q-54 8 -109 8q-151 0 -151 -203v-158h223v-92h-223v-950h-113v950h-176z" />
<glyph unicode="g" horiz-adv-x="993" d="M111 518q0 248 91.5 390.5t237.5 142.5q119 0 287 -158l16 149h88v-1036q0 -194 -96.5 -298.5t-285.5 -104.5q-103 0 -191 10l-12 86h170q90 0 151.5 22.5t93.5 65t45 91.5t13 114v151q-98 -85 -166.5 -118t-138.5 -33q-140 0 -221.5 145t-81.5 381zM221 522 q0 -190 59 -311t160 -121q108 0 279 162v536q-168 162 -266 162q-100 0 -166 -120.5t-66 -307.5z" />
<glyph unicode="h" horiz-adv-x="1017" d="M164 0v1481l110 16v-598q100 85 170 118.5t146 33.5q121 0 193.5 -102t72.5 -267v-682h-111v649q0 82 -18.5 148t-61 109.5t-104.5 43.5q-119 0 -287 -159v-791h-110z" />
<glyph unicode="i" horiz-adv-x="436" d="M164 0v1042h110v-1042h-110zM164 1305v170h110v-170h-110z" />
<glyph unicode="j" horiz-adv-x="438" d="M66 -346q98 146 98 366v1022h110v-983q0 -167 -28.5 -268t-98.5 -188zM164 1305v170h110v-170h-110z" />
<glyph unicode="k" horiz-adv-x="835" d="M164 0v1481l110 16v-917h2l353 462h137l-367 -462l426 -580h-145l-404 565h-2v-565h-110z" />
<glyph unicode="l" horiz-adv-x="436" d="M164 0v1481l110 16v-1497h-110z" />
<glyph unicode="m" horiz-adv-x="1583" d="M164 0v1042h88l14 -151q105 92 174.5 126t145.5 34q81 0 140.5 -47t90.5 -132q118 104 191.5 141.5t150.5 37.5q120 0 191 -101.5t71 -267.5v-682h-110v649q0 82 -17.5 147.5t-59.5 109.5t-104 44q-117 0 -282 -159v-791h-111v649q0 61 -10 113.5t-30.5 95.5t-56.5 67.5 t-83 24.5q-118 0 -283 -159v-791h-110z" />
<glyph unicode="n" horiz-adv-x="1017" d="M164 0v1042h88l14 -151q107 92 177 126t147 34q121 0 193.5 -102t72.5 -267v-682h-111v649q0 82 -18.5 148t-61 109.5t-104.5 43.5q-119 0 -287 -159v-791h-110z" />
<glyph unicode="o" horiz-adv-x="1021" d="M109 516q0 116 23.5 211.5t71 169t126 114t182.5 40.5h4q207 0 302 -132.5t95 -394.5q0 -116 -23 -210.5t-70.5 -167.5t-126 -113.5t-183.5 -40.5h-4q-207 0 -302 132t-95 392zM223 520q0 -430 287 -430q291 0 291 430q0 434 -289 434q-78 0 -135.5 -32.5t-90 -92.5 t-48 -136t-15.5 -173z" />
<glyph unicode="p" horiz-adv-x="993" d="M164 -397v1439h88l14 -151q104 91 174 125.5t140 34.5q141 0 223 -146t82 -381q0 -247 -92.5 -389.5t-237.5 -142.5q-115 0 -281 147v-520zM274 252q174 -162 269 -162q99 0 164 121.5t65 308.5q0 190 -58 310t-159 120q-113 0 -281 -159v-539z" />
<glyph unicode="q" horiz-adv-x="993" d="M111 518q0 248 91.5 390.5t237.5 142.5q119 0 287 -158l16 149h88v-1421l-112 -18v540q-96 -84 -165 -117.5t-140 -33.5q-140 0 -221.5 145t-81.5 381zM221 522q0 -190 59 -311t160 -121q108 0 279 162v536q-168 162 -266 162q-100 0 -166 -120.5t-66 -307.5z" />
<glyph unicode="r" horiz-adv-x="620" d="M164 0v1042h90l12 -155q70 75 120 112t79 44.5t74 7.5h47v-107h-51q-70 0 -119.5 -32.5t-141.5 -127.5v-784h-110z" />
<glyph unicode="s" horiz-adv-x="724" d="M82 57l39 90q109 -59 209 -59q96 0 142 45.5t46 118.5q0 66 -41.5 118.5t-159.5 123.5q-130 76 -180.5 144.5t-50.5 160.5q0 114 78.5 183t200.5 69q119 0 231 -62l-35 -84q-104 51 -199 51q-79 0 -122 -41t-43 -108q0 -62 39.5 -111.5t148.5 -111.5 q139 -80 192.5 -154.5t53.5 -167.5q0 -126 -80.5 -198t-220.5 -72q-128 0 -248 65z" />
<glyph unicode="t" horiz-adv-x="598" d="M0 950v92h176v320l113 12v-332h243v-92h-243v-712q0 -84 25.5 -116t93.5 -32q40 0 114 12l13 -82q-86 -28 -164 -28q-97 0 -146 50t-49 173v735h-176z" />
<glyph unicode="u" horiz-adv-x="1017" d="M162 360v682h110v-649q0 -128 46.5 -215.5t138.5 -87.5q115 0 286 162v790h111v-1042h-88l-16 152q-105 -92 -175 -126t-147 -34q-122 0 -194 101t-72 267z" />
<glyph unicode="v" horiz-adv-x="796" d="M39 1042h123l200 -759l35 -152h2l39 160l195 751h125l-299 -1042h-133z" />
<glyph unicode="w" horiz-adv-x="1308" d="M59 1042h123l211 -931h2l223 931h89l223 -931h2l203 931h122l-260 -1042h-153l-187 788h-2l-186 -788h-162z" />
<glyph unicode="x" horiz-adv-x="864" d="M29 0l336 532l-314 510h135l248 -424h2l250 424h129l-313 -499l336 -543h-140l-268 453h-2l-266 -453h-133z" />
<glyph unicode="y" horiz-adv-x="780" d="M35 1042h125l215 -776l31 -129h2l41 174l184 731h123l-269 -972q-60 -213 -119 -307t-173 -160l-52 80q78 48 122 108t79 182z" />
<glyph unicode="z" horiz-adv-x="692" d="M57 0v70l428 876h-415v96h542v-71l-428 -875h449v-96h-576z" />
<glyph unicode="{" horiz-adv-x="819" d="M82 569v95q111 0 151.5 62.5t40.5 197.5v307q0 228 106.5 323t307.5 84v-94q-159 9 -232 -58.5t-73 -238.5v-311q0 -141 -40 -214.5t-138 -100.5q178 -38 178 -308v-284q0 -103 20.5 -170t62.5 -101t94 -45t128 -8v-94q-97 -5 -170 11.5t-129.5 61t-85.5 126t-29 200.5 v287q0 272 -192 272z" />
<glyph unicode="|" horiz-adv-x="446" d="M178 -403v2041h90v-2041h-90z" />
<glyph unicode="}" horiz-adv-x="819" d="M131 -295q82 -5 135.5 5t93.5 42t58 93t18 157v295q0 141 40 216.5t138 104.5q-78 8 -128 87t-50 215v301q0 103 -20.5 170t-62.5 100.5t-94 44.5t-128 8v94q97 5 170 -11.5t129.5 -61t85.5 -126t29 -200.5v-303q0 -139 44.5 -205.5t147.5 -66.5v-95q-111 0 -151.5 -62 t-40.5 -198v-291q0 -228 -106.5 -323t-307.5 -84v94z" />
<glyph unicode="~" d="M143 989q-6 132 62 213.5t180 81.5q53 0 98 -23t77 -56t61.5 -65.5t63 -55.5t69.5 -23q133 0 137 203h100q6 -134 -62 -216.5t-181 -82.5q-44 0 -83.5 16.5t-67 41.5t-56 54.5t-51.5 54.5t-53.5 41.5t-61.5 16.5q-49 0 -80 -32.5t-41.5 -74.5t-11.5 -94h-99z" />
<glyph unicode="&#xa1;" horiz-adv-x="589" d="M190 1057v168h127v-168h-127zM197 -156v1002h114v-1002h-114z" />
<glyph unicode="&#xa2;" horiz-adv-x="860" d="M125 698q0 196 79.5 303t221.5 125v205h102v-203q112 -8 215 -79l-32 -82q-116 69 -213 69q-260 0 -260 -327q0 -328 245 -328q92 0 234 68l31 -82q-111 -65 -220 -78v-215h-102v211q-51 3 -93 16t-81.5 42.5t-66.5 74t-43.5 116t-16.5 164.5z" />
<glyph unicode="&#xa3;" horiz-adv-x="1024" d="M68 627v94h182v194q0 115 25.5 200t71 132.5t99.5 69.5t119 22q182 0 275 -67l-33 -80q-106 49 -232 49q-111 0 -162 -78.5t-51 -251.5v-190h340v-94h-340v-529h476v-98h-725v78l137 16v533h-182z" />
<glyph unicode="&#xa4;" d="M94 1290l94 47l187 -299q80 49 194 49h4q106 0 183 -45l184 295l88 -47l-197 -297q103 -106 103 -331q0 -212 -103 -334l187 -283l-92 -53l-172 280q-82 -47 -185 -47h-6q-119 0 -192 47l-172 -280l-90 49l186 283q-102 102 -102 327q0 110 28.5 196.5t77.5 135.5z M303 655q0 -333 262 -333q134 0 196 90t62 243q0 336 -258 336q-134 0 -198 -89t-64 -247z" />
<glyph unicode="&#xa5;" d="M125 1331h131l168 -319l154 -310l167 334l150 295h125l-385 -721h307v-88h-311v-221h311v-90h-311v-211h-113v211h-313v90h313v221h-313v88h309z" />
<glyph unicode="&#xa6;" horiz-adv-x="579" d="M236 -397v809h110v-809h-110zM236 846v805h110v-805h-110z" />
<glyph unicode="&#xa7;" d="M147 657q0 96 48 169t161 149q-129 95 -129 235q0 129 90.5 208t257.5 79q85 0 168 -21.5t144 -56.5l-37 -82q-140 64 -270 64q-120 0 -180 -51t-60 -131q0 -52 26.5 -94.5t70 -71.5t98.5 -57.5t113 -52.5t113 -57t98.5 -70t70 -93.5t26.5 -124.5q0 -97 -47 -168.5 t-159 -146.5q131 -96 131 -244q0 -128 -102.5 -211.5t-276.5 -83.5q-83 0 -173.5 24.5t-162.5 65.5l39 86q160 -78 293 -78q127 0 196.5 53.5t69.5 135.5q0 54 -26.5 98t-70 73t-99 58t-113 52.5t-113 56.5t-99 69.5t-70 93t-26.5 125.5zM260 668q0 -45 18.5 -83.5 t47.5 -65.5t73.5 -53.5t84 -44.5t92 -43t86.5 -44q98 56 138.5 116t43.5 138q0 45 -18 83.5t-46 64.5t-72 52.5t-83.5 44t-93 43t-89.5 46.5q-102 -60 -140.5 -117.5t-41.5 -136.5z" />
<glyph unicode="&#xa8;" horiz-adv-x="819" d="M174 1309v159h109v-159h-109zM537 1309v159h108v-159h-108z" />
<glyph unicode="&#xa9;" horiz-adv-x="1603" d="M150 690q0 145 49.5 275t136 225.5t211 151t268.5 55.5q191 0 344.5 -95t237.5 -256.5t84 -355.5t-84 -355t-237.5 -256t-344.5 -95t-344.5 95t-237 256t-83.5 355zM248 690q0 -171 70.5 -311.5t201 -223.5t295.5 -83t295.5 82t201 223t70.5 313q0 171 -70.5 311.5 t-201 224t-295.5 83.5t-295.5 -82.5t-201 -223.5t-70.5 -313zM487 680q0 224 90.5 337t251.5 113q122 0 232 -71l-31 -82q-120 59 -186 59q-119 0 -180.5 -79t-61.5 -267q0 -97 16 -165.5t46.5 -106.5t69 -55t89.5 -17q16 0 31.5 1.5t32.5 6t29 7.5t31 11t27.5 11.5 t30.5 13.5t29 13l31 -80q-140 -80 -264 -80q-54 0 -96 9.5t-84.5 37t-70.5 74t-45.5 125t-17.5 184.5z" />
<glyph unicode="&#xaa;" horiz-adv-x="772" d="M147 895q0 101 85.5 151t267.5 50h43v24q0 101 -28 143t-116 42q-69 0 -194 -39l-19 77q127 43 226 43q122 0 175.5 -57.5t53.5 -187.5v-434h-82l-8 94q-59 -52 -109 -76.5t-110 -24.5q-83 0 -134 55t-51 140zM166 479v90h491v-90h-491zM248 903q0 -51 29 -85t77 -34 q42 0 85.5 22.5t103.5 78.5v137h-51q-142 0 -193 -28.5t-51 -90.5z" />
<glyph unicode="&#xab;" horiz-adv-x="1040" d="M121 606l285 443l73 -33l-225 -406l225 -407l-78 -35zM506 606l270 422l74 -33l-215 -385l215 -385l-76 -35z" />
<glyph unicode="&#xac;" d="M125 563v94h846v-389h-105v295h-741z" />
<glyph unicode="&#xad;" horiz-adv-x="518" d="M78 532v101h381v-101h-381z" />
<glyph unicode="&#xae;" horiz-adv-x="1224" d="M127 1024q0 132 61.5 244t173.5 178.5t250 66.5q140 0 251.5 -66.5t172 -177.5t60.5 -245q0 -130 -62 -242t-174 -179.5t-248 -67.5q-213 0 -349 141.5t-136 347.5zM223 1026q0 -167 110 -287.5t279 -120.5q170 0 279.5 117t109.5 285q0 167 -110 287t-279 120 q-113 0 -202.5 -55t-138 -146.5t-48.5 -199.5zM426 735v555h180q203 0 203 -162q0 -111 -113 -153l142 -240h-117l-119 217h-76v-217h-100zM526 1038h52q74 0 101.5 21t27.5 61q0 49 -26 67.5t-103 18.5h-52v-168z" />
<glyph unicode="&#xaf;" horiz-adv-x="819" d="M156 1288v90h508v-90h-508z" />
<glyph unicode="&#xb0;" horiz-adv-x="950" d="M135 1249q0 141 100.5 240.5t241.5 99.5q143 0 242.5 -99t99.5 -241q0 -141 -100.5 -240.5t-241.5 -99.5q-144 0 -243 98.5t-99 241.5zM236 1249q0 -104 70.5 -177t170.5 -73t171 72.5t71 177.5q0 104 -71 177t-171 73t-170.5 -73t-70.5 -177z" />
<glyph unicode="&#xb1;" d="M162 0v94h803v-94h-803zM162 678v92h350v379h102v-379h351v-92h-351v-383h-102v383h-350z" />
<glyph unicode="&#xb2;" horiz-adv-x="892" d="M186 711v75l232 191q77 61 102 108.5t25 108.5q0 49 -33 80t-94 31q-71 0 -185 -64l-34 64q113 84 231 84q112 0 168.5 -53t56.5 -134q0 -79 -36 -141.5t-123 -128.5l-170 -133h372v-88h-512z" />
<glyph unicode="&#xb3;" horiz-adv-x="868" d="M180 766l31 59q92 -39 190 -39q81 0 113.5 29.5t32.5 81.5q0 23 -9 41t-32 34.5t-72 24t-121 4.5v82q121 -4 170 25t49 90q0 50 -33.5 81.5t-95.5 31.5q-31 0 -63.5 -10t-48.5 -17.5t-66 -34.5l-35 62q103 78 226 78q112 0 166.5 -51t54.5 -132q0 -55 -31 -95.5 t-92 -57.5q60 -9 96.5 -50t36.5 -100q0 -97 -64.5 -147.5t-191.5 -50.5q-120 0 -211 61z" />
<glyph unicode="&#xb4;" horiz-adv-x="819" d="M346 1212l236 285l102 -55l-264 -268z" />
<glyph unicode="&#xb6;" horiz-adv-x="1116" d="M143 1094q0 68 21.5 130t67 116.5t128 87t191.5 32.5h502v-92h-150v-1647h-106v1647h-193v-1311q0 -187 -42.5 -266.5t-139.5 -79.5q-64 0 -162 23v90q37 -8 58.5 -11.5t47 -6.5t39 -1.5t30 7t24 14.5t16.5 25.5t12 36.5t6.5 50.5t4 64.5t0.5 81v655q-160 0 -257.5 103 t-97.5 252z" />
<glyph unicode="&#xb7;" horiz-adv-x="335" d="M98 518v184h138v-184h-138z" />
<glyph unicode="&#xb8;" horiz-adv-x="800" d="M240 -389l100 285h125l-131 -285h-94z" />
<glyph unicode="&#xb9;" horiz-adv-x="616" d="M121 1276l194 104h88v-669h-108v559l-135 -72z" />
<glyph unicode="&#xba;" horiz-adv-x="763" d="M109 1042q0 162 69 253t209 91h4q141 0 207 -81t66 -256q0 -162 -68 -254.5t-209 -92.5h-4q-144 0 -209 83.5t-65 256.5zM156 479v90h473v-90h-473zM209 1044q0 -258 178 -258q176 0 176 261q0 253 -176 253q-178 0 -178 -256z" />
<glyph unicode="&#xbb;" horiz-adv-x="1040" d="M193 223l213 383l-213 387l73 35l269 -418l-271 -420zM561 201l227 405l-227 410l78 33l281 -439l-283 -442z" />
<glyph unicode="&#xbc;" horiz-adv-x="1396" d="M119 1276l194 104h88v-669h-108v559l-137 -72zM201 0l811 1380h108l-811 -1380h-108zM729 164v78l256 428h148v-418h120v-88h-120v-164h-105v164h-299zM827 250h203v338z" />
<glyph unicode="&#xbd;" horiz-adv-x="1406" d="M119 1276l194 104h88v-669h-108v559l-137 -72zM201 0l811 1380h108l-811 -1380h-108zM795 0v76l233 188q76 63 100.5 111t24.5 108q0 48 -33 79.5t-94 31.5q-66 0 -184 -66l-33 66q105 82 231 82q111 0 167.5 -52t56.5 -132q0 -79 -35.5 -143t-122.5 -130l-172 -131h373 v-88h-512z" />
<glyph unicode="&#xbe;" horiz-adv-x="1402" d="M104 766l31 59q92 -39 191 -39q145 0 145 111q0 23 -9 41t-32.5 34.5t-72 24t-119.5 4.5v82q120 -4 169.5 25t49.5 90q0 50 -34 81.5t-97 31.5q-12 0 -24 -1.5t-20.5 -2.5t-22 -6t-19 -7t-22 -9.5t-20.5 -9.5t-24 -13t-24 -13l-35 62q103 78 225 78q111 0 166 -51 t55 -132q0 -55 -31 -95.5t-92 -57.5q59 -9 96 -50.5t37 -99.5q0 -97 -64.5 -147.5t-191.5 -50.5q-120 0 -211 61zM244 0l811 1380h108l-809 -1380h-110zM770 164v78l258 428h148v-418h120v-88h-120v-164h-105v164h-301zM870 250h203v338z" />
<glyph unicode="&#xbf;" horiz-adv-x="872" d="M131 121q0 60 17.5 112t45.5 89.5t62 72.5t68 68.5t62 69.5t45.5 83.5t17.5 102.5v127h112v-117q0 -62 -17 -115.5t-44.5 -93.5t-60.5 -76t-66.5 -70t-61 -68.5t-44.5 -78.5t-17 -94q0 -90 56.5 -144.5t172.5 -54.5q109 0 228 37l18 -86q-149 -49 -268 -49 q-152 0 -239 76.5t-87 208.5zM442 1057v168h125v-168h-125z" />
<glyph unicode="&#xc0;" horiz-adv-x="1048" d="M43 0l408 1380h149l406 -1380h-125l-93 319h-536l-90 -319h-119zM279 416h485l-244 839h-2zM281 1741h135l153 -250h-100z" />
<glyph unicode="&#xc1;" horiz-adv-x="1048" d="M43 0l408 1380h149l406 -1380h-125l-93 319h-536l-90 -319h-119zM279 416h485l-244 839h-2zM471 1491l154 250h135l-189 -250h-100z" />
<glyph unicode="&#xc2;" horiz-adv-x="1048" d="M43 0l408 1380h149l406 -1380h-125l-93 319h-536l-90 -319h-119zM250 1548l268 195l268 -193l-38 -59l-232 139l-229 -139zM279 416h485l-244 839h-2z" />
<glyph unicode="&#xc3;" horiz-adv-x="1048" d="M43 0l408 1380h149l406 -1380h-125l-93 319h-536l-90 -319h-119zM219 1511q-15 102 33 167t135 65q38 0 71.5 -16t57 -38.5t44 -45t44 -38.5t47.5 -16q94 0 94 142h76q13 -101 -34 -165.5t-134 -64.5q-48 0 -88.5 24t-64.5 53t-54 53t-59 24q-94 0 -94 -144h-74zM279 416 h485l-244 839h-2z" />
<glyph unicode="&#xc4;" horiz-adv-x="1048" d="M43 0l408 1380h149l406 -1380h-125l-93 319h-536l-90 -319h-119zM276 1520v159h111v-159h-111zM279 416h485l-244 839h-2zM653 1520v159h111v-159h-111z" />
<glyph unicode="&#xc5;" horiz-adv-x="1048" d="M43 0l408 1380h149l406 -1380h-125l-93 319h-536l-90 -319h-119zM279 416h485l-244 839h-2zM306 1546q0 97 54.5 153t168.5 56q109 0 161 -51.5t52 -155.5q0 -97 -52 -154t-165 -57q-117 0 -168 52t-51 157zM400 1546q0 -133 125 -133q123 0 123 135q0 131 -123 131 q-63 0 -94 -35.5t-31 -97.5z" />
<glyph unicode="&#xc6;" horiz-adv-x="1333" d="M-72 0l643 1380h666v-98h-487v-520h444v-98h-444v-566h493v-98h-608v319h-440l-146 -319h-121zM238 416h397v866h-2z" />
<glyph unicode="&#xc7;" horiz-adv-x="997" d="M121 686q0 352 130.5 527.5t352.5 175.5q153 0 330 -82l-33 -95q-166 78 -287 78q-179 0 -275.5 -147.5t-96.5 -452.5q0 -325 86.5 -461.5t275.5 -136.5q124 0 307 78l29 -90q-187 -88 -358 -88q-116 0 -199.5 35.5t-143.5 115.5t-89 214.5t-29 328.5zM402 -389l100 285 h125l-131 -285h-94z" />
<glyph unicode="&#xc8;" horiz-adv-x="872" d="M174 0v1380h604v-98h-487v-520h442v-98h-442v-566h493v-98h-610zM236 1741h135l153 -250h-100z" />
<glyph unicode="&#xc9;" horiz-adv-x="872" d="M174 0v1380h604v-98h-487v-520h442v-98h-442v-566h493v-98h-610zM403 1491l154 250h135l-188 -250h-101z" />
<glyph unicode="&#xca;" horiz-adv-x="872" d="M174 0v1380h604v-98h-487v-520h442v-98h-442v-566h493v-98h-610zM203 1548l268 195l268 -193l-39 -59l-231 139l-229 -139z" />
<glyph unicode="&#xcb;" horiz-adv-x="872" d="M174 0v1380h604v-98h-487v-520h442v-98h-442v-566h493v-98h-610zM227 1520v159h111v-159h-111zM604 1520v159h111v-159h-111z" />
<glyph unicode="&#xcc;" horiz-adv-x="464" d="M-2 1741h135l154 -250h-101zM174 0v1380h117v-1380h-117z" />
<glyph unicode="&#xcd;" horiz-adv-x="464" d="M174 0v1380h117v-1380h-117zM182 1491l154 250h135l-188 -250h-101z" />
<glyph unicode="&#xce;" horiz-adv-x="464" d="M-33 1548l269 195l268 -193l-39 -59l-232 139l-229 -139zM174 0v1380h117v-1380h-117z" />
<glyph unicode="&#xcf;" horiz-adv-x="464" d="M-10 1520v159h110v-159h-110zM174 0v1380h117v-1380h-117zM367 1520v159h110v-159h-110z" />
<glyph unicode="&#xd0;" horiz-adv-x="1189" d="M53 666v96h144v618q192 4 272 4q318 0 458 -168.5t140 -510.5q0 -709 -604 -709q-110 0 -266 4v666h-144zM313 98q74 -4 154 -4q133 0 226.5 40t149 120.5t80.5 189.5t25 258q0 144 -23.5 248t-78.5 181.5t-150 116t-233 38.5q-60 0 -150 -4v-520h244v-96h-244v-568z" />
<glyph unicode="&#xd1;" horiz-adv-x="1208" d="M174 0v1380h170l580 -1224v1224h108v-1380h-153l-596 1253v-1253h-109zM299 1511q-15 102 33 167t135 65q38 0 71.5 -16t57 -38.5t44 -45t44 -38.5t47.5 -16q94 0 94 142h76q13 -101 -34 -165.5t-134 -64.5q-48 0 -88.5 24t-64.5 53t-54 53t-59 24q-94 0 -94 -144h-74z " />
<glyph unicode="&#xd2;" horiz-adv-x="1267" d="M121 684q0 705 510 705h12q270 0 387 -163.5t117 -531.5q0 -702 -508 -702h-14q-270 0 -387 163t-117 529zM238 690q0 -144 19 -249t63.5 -186.5t123.5 -123t193 -41.5q210 0 301.5 151t91.5 451q0 142 -19 247t-63.5 186.5t-123.5 123t-193 41.5q-210 0 -301.5 -150.5 t-91.5 -449.5zM397 1741h135l154 -250h-100z" />
<glyph unicode="&#xd3;" horiz-adv-x="1267" d="M121 684q0 705 510 705h12q270 0 387 -163.5t117 -531.5q0 -702 -508 -702h-14q-270 0 -387 163t-117 529zM238 690q0 -144 19 -249t63.5 -186.5t123.5 -123t193 -41.5q210 0 301.5 151t91.5 451q0 142 -19 247t-63.5 186.5t-123.5 123t-193 41.5q-210 0 -301.5 -150.5 t-91.5 -449.5zM580 1491l153 250h135l-188 -250h-100z" />
<glyph unicode="&#xd4;" horiz-adv-x="1267" d="M121 684q0 705 510 705h12q270 0 387 -163.5t117 -531.5q0 -702 -508 -702h-14q-270 0 -387 163t-117 529zM238 690q0 -144 19 -249t63.5 -186.5t123.5 -123t193 -41.5q210 0 301.5 151t91.5 451q0 142 -19 247t-63.5 186.5t-123.5 123t-193 41.5q-210 0 -301.5 -150.5 t-91.5 -449.5zM369 1548l268 195l268 -193l-39 -59l-231 139l-229 -139z" />
<glyph unicode="&#xd5;" horiz-adv-x="1267" d="M121 684q0 705 510 705h12q270 0 387 -163.5t117 -531.5q0 -702 -508 -702h-14q-270 0 -387 163t-117 529zM238 690q0 -144 19 -249t63.5 -186.5t123.5 -123t193 -41.5q210 0 301.5 151t91.5 451q0 142 -19 247t-63.5 186.5t-123.5 123t-193 41.5q-210 0 -301.5 -150.5 t-91.5 -449.5zM336 1511q-15 102 33 167t135 65q38 0 71.5 -16t57 -38.5t44 -45t44 -38.5t47.5 -16q94 0 94 142h76q13 -101 -34 -165.5t-134 -64.5q-48 0 -88.5 24t-64.5 53t-54 53t-59 24q-94 0 -94 -144h-74z" />
<glyph unicode="&#xd6;" horiz-adv-x="1267" d="M121 684q0 705 510 705h12q270 0 387 -163.5t117 -531.5q0 -702 -508 -702h-14q-270 0 -387 163t-117 529zM238 690q0 -144 19 -249t63.5 -186.5t123.5 -123t193 -41.5q210 0 301.5 151t91.5 451q0 142 -19 247t-63.5 186.5t-123.5 123t-193 41.5q-210 0 -301.5 -150.5 t-91.5 -449.5zM379 1520v159h110v-159h-110zM756 1520v159h110v-159h-110z" />
<glyph unicode="&#xd7;" d="M92 201l406 405l-406 408l70 69l405 -405l406 405l65 -65l-405 -408l405 -405l-69 -70l-406 406l-405 -406z" />
<glyph unicode="&#xd8;" horiz-adv-x="1273" d="M129 684q0 705 512 705h12q94 0 178 -23l99 281h102l-112 -316q125 -66 183 -221t58 -416q0 -702 -512 -702h-12q-100 0 -180 22l-101 -290h-102l117 325q-126 65 -184 219t-58 416zM244 690q0 -197 37 -332.5t127 -201.5l389 1110q-73 26 -158 26q-210 0 -302.5 -151.5 t-92.5 -450.5zM494 115q73 -27 155 -27q211 0 304.5 153.5t93.5 452.5q0 412 -164 531z" />
<glyph unicode="&#xd9;" horiz-adv-x="1198" d="M174 403v977h117v-974q0 -164 70 -240t239 -76q90 0 151.5 21t95 64.5t47 98.5t13.5 132v974h117v-968q0 -92 -23.5 -166.5t-73.5 -132.5t-135 -89.5t-200 -31.5q-217 0 -317.5 101.5t-100.5 309.5zM360 1741h136l153 -250h-100z" />
<glyph unicode="&#xda;" horiz-adv-x="1198" d="M174 403v977h117v-974q0 -164 70 -240t239 -76q90 0 151.5 21t95 64.5t47 98.5t13.5 132v974h117v-968q0 -92 -23.5 -166.5t-73.5 -132.5t-135 -89.5t-200 -31.5q-217 0 -317.5 101.5t-100.5 309.5zM543 1491l153 250h135l-188 -250h-100z" />
<glyph unicode="&#xdb;" horiz-adv-x="1198" d="M174 403v977h117v-974q0 -164 70 -240t239 -76q90 0 151.5 21t95 64.5t47 98.5t13.5 132v974h117v-968q0 -92 -23.5 -166.5t-73.5 -132.5t-135 -89.5t-200 -31.5q-217 0 -317.5 101.5t-100.5 309.5zM332 1548l268 195l268 -193l-39 -59l-231 139l-229 -139z" />
<glyph unicode="&#xdc;" horiz-adv-x="1198" d="M174 403v977h117v-974q0 -164 70 -240t239 -76q90 0 151.5 21t95 64.5t47 98.5t13.5 132v974h117v-968q0 -92 -23.5 -166.5t-73.5 -132.5t-135 -89.5t-200 -31.5q-217 0 -317.5 101.5t-100.5 309.5zM352 1520v159h111v-159h-111zM729 1520v159h111v-159h-111z" />
<glyph unicode="&#xdd;" horiz-adv-x="944" d="M20 1380h134l178 -364l145 -303l129 274l191 393h129l-396 -786v-594h-112v594zM408 1491l153 250h135l-188 -250h-100z" />
<glyph unicode="&#xde;" horiz-adv-x="1013" d="M174 0v1380h117v-239q61 2 211 2q226 0 330 -108.5t104 -315.5q0 -200 -118.5 -317t-340.5 -117q-125 0 -186 2v-287h-117zM291 389q64 -6 188 -6q181 0 258.5 86.5t77.5 243.5q0 80 -14.5 137t-50.5 103t-102.5 68.5t-164.5 22.5q-90 0 -192 -4v-651z" />
<glyph unicode="&#xdf;" horiz-adv-x="978" d="M164 0v1114q0 176 88 278.5t248 102.5q141 0 212.5 -73t71.5 -187q0 -68 -22.5 -121.5t-55 -87.5t-64.5 -64t-54.5 -68t-22.5 -83q0 -48 20 -89t52 -72t70.5 -60.5t77.5 -62t71 -69t52 -88t20 -112.5q0 -124 -79 -195t-212 -71q-95 0 -182 33l22 92q67 -29 158 -29 q87 0 132.5 45.5t45.5 112.5q0 51 -19.5 94t-51.5 74t-70 60t-76 60t-70 66t-51.5 85.5t-19.5 111.5q0 49 16 91t40.5 69.5t53 58t53 56.5t40.5 65.5t16 85.5q0 34 -9.5 64t-29 56.5t-56.5 42t-87 15.5q-109 0 -163.5 -76.5t-54.5 -208.5v-1116h-110z" />
<glyph unicode="&#xe0;" horiz-adv-x="983" d="M100 293q0 149 124.5 222t396.5 73h90v47q0 64 -5 109t-19.5 87.5t-41 68t-70.5 41t-106 15.5q-111 0 -297 -63l-22 86q194 72 335 72q180 0 258 -90t78 -289v-672h-88l-14 152q-110 -95 -183.5 -127.5t-168.5 -32.5q-119 0 -193 84t-74 217zM215 1442l103 55l235 -285 l-74 -38zM217 301q0 -91 47.5 -151t128.5 -60t148.5 34.5t169.5 127.5v244h-103q-154 0 -240.5 -22.5t-118.5 -63t-32 -109.5z" />
<glyph unicode="&#xe1;" horiz-adv-x="983" d="M100 293q0 149 124.5 222t396.5 73h90v47q0 64 -5 109t-19.5 87.5t-41 68t-70.5 41t-106 15.5q-111 0 -297 -63l-22 86q194 72 335 72q180 0 258 -90t78 -289v-672h-88l-14 152q-110 -95 -183.5 -127.5t-168.5 -32.5q-119 0 -193 84t-74 217zM217 301q0 -91 47.5 -151 t128.5 -60t148.5 34.5t169.5 127.5v244h-103q-154 0 -240.5 -22.5t-118.5 -63t-32 -109.5zM399 1212l236 285l102 -55l-264 -268z" />
<glyph unicode="&#xe2;" horiz-adv-x="983" d="M100 293q0 149 124.5 222t396.5 73h90v47q0 64 -5 109t-19.5 87.5t-41 68t-70.5 41t-106 15.5q-111 0 -297 -63l-22 86q194 72 335 72q180 0 258 -90t78 -289v-672h-88l-14 152q-110 -95 -183.5 -127.5t-168.5 -32.5q-119 0 -193 84t-74 217zM217 301q0 -91 47.5 -151 t128.5 -60t148.5 34.5t169.5 127.5v244h-103q-154 0 -240.5 -22.5t-118.5 -63t-32 -109.5zM238 1231l246 266l245 -264l-53 -59l-194 182l-193 -182z" />
<glyph unicode="&#xe3;" horiz-adv-x="983" d="M100 293q0 149 124.5 222t396.5 73h90v47q0 64 -5 109t-19.5 87.5t-41 68t-70.5 41t-106 15.5q-111 0 -297 -63l-22 86q194 72 335 72q180 0 258 -90t78 -289v-672h-88l-14 152q-110 -95 -183.5 -127.5t-168.5 -32.5q-119 0 -193 84t-74 217zM181 1249q-15 102 33 167 t135 65q38 0 71.5 -15.5t57 -38t44 -45t44 -38t47.5 -15.5q49 0 71.5 34t22.5 107h76q13 -102 -34 -166.5t-134 -64.5q-39 0 -72.5 15.5t-57 38t-44.5 45t-44.5 38t-47.5 15.5q-49 0 -72 -34.5t-23 -107.5h-73zM217 301q0 -91 47.5 -151t128.5 -60t148.5 34.5t169.5 127.5 v244h-103q-154 0 -240.5 -22.5t-118.5 -63t-32 -109.5z" />
<glyph unicode="&#xe4;" horiz-adv-x="983" d="M100 293q0 149 124.5 222t396.5 73h90v47q0 64 -5 109t-19.5 87.5t-41 68t-70.5 41t-106 15.5q-111 0 -297 -63l-22 86q194 72 335 72q180 0 258 -90t78 -289v-672h-88l-14 152q-110 -95 -183.5 -127.5t-168.5 -32.5q-119 0 -193 84t-74 217zM217 301q0 -91 47.5 -151 t128.5 -60t148.5 34.5t169.5 127.5v244h-103q-154 0 -240.5 -22.5t-118.5 -63t-32 -109.5zM244 1309v159h109v-159h-109zM607 1309v159h108v-159h-108z" />
<glyph unicode="&#xe5;" horiz-adv-x="983" d="M100 293q0 149 124.5 222t396.5 73h90v47q0 64 -5 109t-19.5 87.5t-41 68t-70.5 41t-106 15.5q-111 0 -297 -63l-22 86q194 72 335 72q180 0 258 -90t78 -289v-672h-88l-14 152q-110 -95 -183.5 -127.5t-168.5 -32.5q-119 0 -193 84t-74 217zM217 301q0 -91 47.5 -151 t128.5 -60t148.5 34.5t169.5 127.5v244h-103q-154 0 -240.5 -22.5t-118.5 -63t-32 -109.5zM265 1358q0 97 54.5 153t168.5 56q109 0 161 -51.5t52 -155.5q0 -97 -52 -154t-165 -57q-117 0 -168 52t-51 157zM359 1358q0 -133 125 -133q123 0 123 135q0 131 -123 131 q-63 0 -94 -35.5t-31 -97.5z" />
<glyph unicode="&#xe6;" horiz-adv-x="1548" d="M100 293q0 149 124.5 222t396.5 73h90v47q0 64 -5 109t-19.5 87.5t-41 68t-70.5 41t-106 15.5q-111 0 -297 -63l-22 86q194 72 335 72q125 0 199.5 -45t101.5 -150q41 93 118.5 144t185.5 51q164 0 255 -121t91 -318q0 -58 -4 -116h-611q0 -210 67 -308t210 -98 q52 0 135.5 13t150.5 34l23 -78q-177 -67 -334 -67q-127 0 -207 55t-118 176q-101 -120 -188 -175.5t-202 -55.5q-114 0 -186 84.5t-72 216.5zM217 301q0 -90 46.5 -150.5t121.5 -60.5q81 0 158.5 52.5t177.5 176.5q-10 69 -10 177h-103q-154 0 -240.5 -22.5t-118.5 -63 t-32 -109.5zM821 588h504v20q0 70 -13.5 130t-41 110t-76.5 79t-115 29q-67 0 -117.5 -32t-79.5 -87t-43.5 -116.5t-17.5 -132.5z" />
<glyph unicode="&#xe7;" horiz-adv-x="770" d="M111 510q0 270 100 405.5t270 135.5q128 0 242 -93l-41 -79q-98 73 -199 73q-119 0 -189.5 -103t-70.5 -329q0 -117 20.5 -203t56.5 -133.5t79 -69.5t94 -22q105 0 223 74l41 -74q-124 -100 -282 -100q-45 0 -84 9.5t-79.5 31t-72 60.5t-56.5 94.5t-38.5 138t-13.5 184.5 zM279 -389l100 285h125l-131 -285h-94z" />
<glyph unicode="&#xe8;" horiz-adv-x="950" d="M109 514q0 258 101 397.5t282 139.5q162 0 254 -121.5t92 -317.5q0 -58 -4 -116h-611q0 -210 66.5 -308t206.5 -98q55 0 138.5 13t151.5 34l23 -78q-177 -67 -330 -67q-191 0 -280.5 120.5t-89.5 401.5zM213 1442l103 55l235 -285l-74 -38zM223 588h502v20q0 70 -13 130 t-40.5 110t-76 79t-114.5 29q-68 0 -119 -32t-79.5 -87t-43 -116.5t-16.5 -132.5z" />
<glyph unicode="&#xe9;" horiz-adv-x="950" d="M109 514q0 258 101 397.5t282 139.5q162 0 254 -121.5t92 -317.5q0 -58 -4 -116h-611q0 -210 66.5 -308t206.5 -98q55 0 138.5 13t151.5 34l23 -78q-177 -67 -330 -67q-191 0 -280.5 120.5t-89.5 401.5zM223 588h502v20q0 70 -13 130t-40.5 110t-76 79t-114.5 29 q-68 0 -119 -32t-79.5 -87t-43 -116.5t-16.5 -132.5zM414 1212l236 285l102 -55l-264 -268z" />
<glyph unicode="&#xea;" horiz-adv-x="950" d="M109 514q0 258 101 397.5t282 139.5q162 0 254 -121.5t92 -317.5q0 -58 -4 -116h-611q0 -210 66.5 -308t206.5 -98q55 0 138.5 13t151.5 34l23 -78q-177 -67 -330 -67q-191 0 -280.5 120.5t-89.5 401.5zM223 588h502v20q0 70 -13 130t-40.5 110t-76 79t-114.5 29 q-68 0 -119 -32t-79.5 -87t-43 -116.5t-16.5 -132.5zM230 1231l246 266l245 -264l-53 -59l-194 182l-193 -182z" />
<glyph unicode="&#xeb;" horiz-adv-x="950" d="M109 514q0 258 101 397.5t282 139.5q162 0 254 -121.5t92 -317.5q0 -58 -4 -116h-611q0 -210 66.5 -308t206.5 -98q55 0 138.5 13t151.5 34l23 -78q-177 -67 -330 -67q-191 0 -280.5 120.5t-89.5 401.5zM223 588h502v20q0 70 -13 130t-40.5 110t-76 79t-114.5 29 q-68 0 -119 -32t-79.5 -87t-43 -116.5t-16.5 -132.5zM244 1309v159h109v-159h-109zM607 1309v159h108v-159h-108z" />
<glyph unicode="&#xec;" horiz-adv-x="436" d="M-21 1442l103 55l235 -285l-74 -38zM164 0v1042h110v-1042h-110z" />
<glyph unicode="&#xed;" horiz-adv-x="436" d="M125 1212l236 285l102 -55l-264 -268zM164 0v1042h110v-1042h-110z" />
<glyph unicode="&#xee;" horiz-adv-x="436" d="M-24 1231l246 266l245 -264l-53 -59l-194 182l-193 -182zM164 0v1042h110v-1042h-110z" />
<glyph unicode="&#xef;" horiz-adv-x="436" d="M-14 1309v159h109v-159h-109zM164 0v1042h110v-1042h-110zM349 1309v159h108v-159h-108z" />
<glyph unicode="&#xf0;" horiz-adv-x="960" d="M111 518q0 244 89.5 387.5t231.5 143.5h4q51 0 121.5 -35.5t134.5 -95.5q-57 187 -166 321l-204 -96l-46 78l187 86q-67 67 -164 127l92 63q97 -66 174 -143l217 102l45 -76l-202 -96q227 -285 227 -711q0 -584 -377 -581h-6q-80 0 -142.5 28.5t-102.5 76.5t-66 116.5 t-36.5 143t-10.5 161.5zM221 522q0 -87 12 -159t40 -136.5t81 -100.5t127 -36q138 0 198 113t60 358q0 117 -16 223q-74 77 -147 121.5t-123 44.5q-100 0 -166 -121t-66 -307z" />
<glyph unicode="&#xf1;" horiz-adv-x="1017" d="M164 0v1042h88l14 -151q107 92 177 126t147 34q121 0 193.5 -102t72.5 -267v-682h-111v649q0 82 -18.5 148t-61 109.5t-104.5 43.5q-119 0 -287 -159v-791h-110zM205 1249q-15 102 33 167t135 65q38 0 71.5 -15.5t57 -38t44 -45t44 -38t47.5 -15.5q49 0 71.5 34t22.5 107 h76q13 -102 -34 -166.5t-134 -64.5q-39 0 -72.5 15.5t-57 38t-44.5 45t-44.5 38t-47.5 15.5q-49 0 -72 -34.5t-23 -107.5h-73z" />
<glyph unicode="&#xf2;" horiz-adv-x="1021" d="M109 516q0 116 23.5 211.5t71 169t126 114t182.5 40.5h4q207 0 302 -132.5t95 -394.5q0 -116 -23 -210.5t-70.5 -167.5t-126 -113.5t-183.5 -40.5h-4q-207 0 -302 132t-95 392zM223 520q0 -430 287 -430q291 0 291 430q0 434 -289 434q-78 0 -135.5 -32.5t-90 -92.5 t-48 -136t-15.5 -173zM248 1442l103 55l235 -285l-74 -38z" />
<glyph unicode="&#xf3;" horiz-adv-x="1021" d="M109 516q0 116 23.5 211.5t71 169t126 114t182.5 40.5h4q207 0 302 -132.5t95 -394.5q0 -116 -23 -210.5t-70.5 -167.5t-126 -113.5t-183.5 -40.5h-4q-207 0 -302 132t-95 392zM223 520q0 -430 287 -430q291 0 291 430q0 434 -289 434q-78 0 -135.5 -32.5t-90 -92.5 t-48 -136t-15.5 -173zM446 1212l236 285l102 -55l-264 -268z" />
<glyph unicode="&#xf4;" horiz-adv-x="1021" d="M109 516q0 116 23.5 211.5t71 169t126 114t182.5 40.5h4q207 0 302 -132.5t95 -394.5q0 -116 -23 -210.5t-70.5 -167.5t-126 -113.5t-183.5 -40.5h-4q-207 0 -302 132t-95 392zM223 520q0 -430 287 -430q291 0 291 430q0 434 -289 434q-78 0 -135.5 -32.5t-90 -92.5 t-48 -136t-15.5 -173zM270 1231l246 266l245 -264l-53 -59l-194 182l-193 -182z" />
<glyph unicode="&#xf5;" horiz-adv-x="1021" d="M109 516q0 116 23.5 211.5t71 169t126 114t182.5 40.5h4q207 0 302 -132.5t95 -394.5q0 -116 -23 -210.5t-70.5 -167.5t-126 -113.5t-183.5 -40.5h-4q-207 0 -302 132t-95 392zM213 1249q-15 102 33 167t135 65q38 0 71.5 -15.5t57 -38t44 -45t44 -38t47.5 -15.5 q49 0 71.5 34t22.5 107h76q13 -102 -34 -166.5t-134 -64.5q-39 0 -72.5 15.5t-57 38t-44.5 45t-44.5 38t-47.5 15.5q-49 0 -72 -34.5t-23 -107.5h-73zM223 520q0 -430 287 -430q291 0 291 430q0 434 -289 434q-78 0 -135.5 -32.5t-90 -92.5t-48 -136t-15.5 -173z" />
<glyph unicode="&#xf6;" horiz-adv-x="1021" d="M109 516q0 116 23.5 211.5t71 169t126 114t182.5 40.5h4q207 0 302 -132.5t95 -394.5q0 -116 -23 -210.5t-70.5 -167.5t-126 -113.5t-183.5 -40.5h-4q-207 0 -302 132t-95 392zM223 520q0 -430 287 -430q291 0 291 430q0 434 -289 434q-78 0 -135.5 -32.5t-90 -92.5 t-48 -136t-15.5 -173zM276 1309v159h109v-159h-109zM639 1309v159h108v-159h-108z" />
<glyph unicode="&#xf7;" d="M125 563v94h876v-94h-876zM500 133v189h127v-189h-127zM500 897v188h127v-188h-127z" />
<glyph unicode="&#xf8;" horiz-adv-x="1028" d="M109 516q0 116 23 211t70 169t126 114.5t184 40.5h4q82 0 143 -21l105 268h100l-119 -305q173 -115 173 -467q0 -116 -22.5 -210.5t-69.5 -168t-126 -114.5t-184 -41h-6q-76 0 -141 20l-113 -288h-100l125 327q-172 114 -172 465zM221 518q0 -258 105 -360l299 776 q-47 20 -113 20q-78 0 -135.5 -32.5t-91 -93t-49 -137.5t-15.5 -173zM403 109q52 -19 113 -19q78 0 135.5 32.5t91 92.5t49 136.5t15.5 172.5q0 259 -105 361z" />
<glyph unicode="&#xf9;" horiz-adv-x="1017" d="M162 360v682h110v-649q0 -128 46.5 -215.5t138.5 -87.5q115 0 286 162v790h111v-1042h-88l-16 152q-105 -92 -175 -126t-147 -34q-122 0 -194 101t-72 267zM233 1442l103 55l235 -285l-74 -38z" />
<glyph unicode="&#xfa;" horiz-adv-x="1017" d="M162 360v682h110v-649q0 -128 46.5 -215.5t138.5 -87.5q115 0 286 162v790h111v-1042h-88l-16 152q-105 -92 -175 -126t-147 -34q-122 0 -194 101t-72 267zM455 1212l236 285l102 -55l-264 -268z" />
<glyph unicode="&#xfb;" horiz-adv-x="1017" d="M162 360v682h110v-649q0 -128 46.5 -215.5t138.5 -87.5q115 0 286 162v790h111v-1042h-88l-16 152q-105 -92 -175 -126t-147 -34q-122 0 -194 101t-72 267zM262 1231l246 266l245 -264l-53 -59l-194 182l-193 -182z" />
<glyph unicode="&#xfc;" horiz-adv-x="1017" d="M162 360v682h110v-649q0 -128 46.5 -215.5t138.5 -87.5q115 0 286 162v790h111v-1042h-88l-16 152q-105 -92 -175 -126t-147 -34q-122 0 -194 101t-72 267zM264 1309v159h109v-159h-109zM627 1309v159h108v-159h-108z" />
<glyph unicode="&#xfd;" horiz-adv-x="780" d="M35 1042h125l215 -776l31 -129h2l41 174l184 731h123l-269 -972q-60 -213 -119 -307t-173 -160l-52 80q78 48 122 108t79 182zM358 1212l236 285l102 -55l-264 -268z" />
<glyph unicode="&#xfe;" horiz-adv-x="993" d="M164 -401v1882l110 16v-600q160 154 299 154q145 0 228.5 -145.5t83.5 -381.5q0 -248 -93 -390t-243 -142q-65 0 -127 32t-148 115v-524zM274 260q92 -98 153.5 -134t115.5 -36q99 0 164 121.5t65 308.5q0 190 -58 310t-159 120q-127 0 -281 -168v-522z" />
<glyph unicode="&#xff;" horiz-adv-x="780" d="M35 1042h125l215 -776l31 -129h2l41 174l184 731h123l-269 -972q-60 -213 -119 -307t-173 -160l-52 80q78 48 122 108t79 182zM166 1309v159h109v-159h-109zM529 1309v159h108v-159h-108z" />
<glyph unicode="&#x152;" horiz-adv-x="1503" d="M121 684q0 705 510 705h12q28 0 86 -4.5t90 -4.5h590v-98h-489v-520h444v-98h-444v-566h495v-98h-598q-36 -1 -98.5 -4.5t-79.5 -3.5h-14q-270 0 -387 163t-117 529zM238 690q0 -144 19 -249t63.5 -186.5t123.5 -123t193 -41.5q74 0 168 12v1174q-119 14 -174 14 q-210 0 -301.5 -150.5t-91.5 -449.5z" />
<glyph unicode="&#x153;" horiz-adv-x="1638" d="M109 516q0 116 23.5 211.5t71 169t126 114t182.5 40.5h4q264 0 344 -228q44 116 127.5 172t192.5 56q164 0 255 -121t91 -318q0 -58 -4 -116h-611q0 -210 67 -308t208 -98q55 0 138 13t151 34l22 -78q-177 -67 -328 -67q-127 0 -206.5 52.5t-116.5 170.5 q-39 -104 -125.5 -163.5t-210.5 -59.5h-4q-207 0 -302 132t-95 392zM223 520q0 -430 287 -430q291 0 291 430q0 434 -289 434q-78 0 -135.5 -32.5t-90 -92.5t-48 -136t-15.5 -173zM911 588h504v20q0 70 -13 130t-41 110t-76.5 79t-113.5 29q-68 0 -119 -32t-80 -87 t-43.5 -116.5t-17.5 -132.5z" />
<glyph unicode="&#x178;" horiz-adv-x="944" d="M20 1380h134l178 -364l145 -303l129 274l191 393h129l-396 -786v-594h-112v594zM233 1520v159h111v-159h-111zM610 1520v159h111v-159h-111z" />
<glyph unicode="&#x2c6;" horiz-adv-x="819" d="M164 1231l246 266l245 -264l-53 -59l-194 182l-193 -182z" />
<glyph unicode="&#x2dc;" horiz-adv-x="819" d="M115 1249q-15 102 33 167t135 65q38 0 71.5 -15.5t57 -38t44 -45t44 -38t47.5 -15.5q49 0 71.5 34t22.5 107h76q13 -102 -34 -166.5t-134 -64.5q-39 0 -72.5 15.5t-57 38t-44.5 45t-44.5 38t-47.5 15.5q-49 0 -72 -34.5t-23 -107.5h-73z" />
<glyph unicode="&#x2000;" horiz-adv-x="877" />
<glyph unicode="&#x2001;" horiz-adv-x="1755" />
<glyph unicode="&#x2002;" horiz-adv-x="877" />
<glyph unicode="&#x2003;" horiz-adv-x="1755" />
<glyph unicode="&#x2004;" horiz-adv-x="585" />
<glyph unicode="&#x2005;" horiz-adv-x="438" />
<glyph unicode="&#x2006;" horiz-adv-x="292" />
<glyph unicode="&#x2007;" horiz-adv-x="292" />
<glyph unicode="&#x2008;" horiz-adv-x="219" />
<glyph unicode="&#x2009;" horiz-adv-x="351" />
<glyph unicode="&#x200a;" horiz-adv-x="97" />
<glyph unicode="&#x2010;" horiz-adv-x="518" d="M78 532v101h381v-101h-381z" />
<glyph unicode="&#x2011;" horiz-adv-x="518" d="M78 532v101h381v-101h-381z" />
<glyph unicode="&#x2012;" horiz-adv-x="518" d="M78 532v101h381v-101h-381z" />
<glyph unicode="&#x2013;" horiz-adv-x="1024" d="M0 561v98h1024v-98h-1024z" />
<glyph unicode="&#x2014;" horiz-adv-x="2048" d="M205 561v98h1638v-98h-1638z" />
<glyph unicode="&#x2018;" horiz-adv-x="505" d="M115 1061l227 512l88 -27l-182 -528z" />
<glyph unicode="&#x2019;" horiz-adv-x="505" d="M115 1044l180 529l135 -41l-227 -514z" />
<glyph unicode="&#x201a;" horiz-adv-x="536" d="M78 -326l180 529l133 -43l-227 -514z" />
<glyph unicode="&#x201c;" horiz-adv-x="903" d="M115 1063l227 510l86 -29l-182 -524zM516 1061l225 512l86 -29l-180 -526z" />
<glyph unicode="&#x201d;" horiz-adv-x="903" d="M115 1047l180 526l131 -43l-227 -510zM514 1047l182 524l131 -41l-227 -512z" />
<glyph unicode="&#x201e;" horiz-adv-x="935" d="M78 -324l180 527l131 -43l-225 -510zM477 -324l182 525l132 -41l-228 -512z" />
<glyph unicode="&#x2022;" d="M315 610q0 103 72.5 175.5t175.5 72.5t175.5 -72.5t72.5 -175.5t-72.5 -175.5t-175.5 -72.5t-175.5 72.5t-72.5 175.5z" />
<glyph unicode="&#x2026;" horiz-adv-x="1394" d="M195 0v174h127v-174h-127zM633 0v174h129v-174h-129zM1073 0v174h127v-174h-127z" />
<glyph unicode="&#x202f;" horiz-adv-x="351" />
<glyph unicode="&#x2039;" horiz-adv-x="665" d="M121 606l285 443l75 -33l-225 -406l225 -407l-78 -35z" />
<glyph unicode="&#x203a;" horiz-adv-x="665" d="M186 201l224 405l-224 410l78 33l283 -439l-285 -442z" />
<glyph unicode="&#x205f;" horiz-adv-x="438" />
<glyph unicode="&#x20ac;" d="M41 467v90h152q-3 59 -3 102q0 9 5 121h-154v88h164q34 231 154.5 351t322.5 120q70 0 161.5 -21.5t164.5 -53.5l-33 -88q-159 65 -293 65q-158 0 -244.5 -96t-113.5 -277h430v-88h-441q-4 -70 -4 -116q0 -70 2 -107h443v-90h-432q18 -190 97.5 -282.5t254.5 -92.5 q58 0 150 20t161 46l29 -84q-87 -38 -184.5 -60t-176.5 -22q-113 0 -192.5 28t-132.5 88t-83 146.5t-44 212.5h-160z" />
<glyph unicode="&#x2122;" horiz-adv-x="1269" d="M18 1296v84h428v-84h-165v-491h-97v491h-166zM496 805l92 575h135l123 -477l143 477h131l97 -575h-101l-72 483l-145 -483h-121l-127 483l-59 -483h-96z" />
<glyph unicode="&#xe000;" horiz-adv-x="1044" d="M0 0v1044h1044v-1044h-1044z" />
</font>
</defs>
</svg>
