<?xml version="1.0" encoding="utf-8"?>
<!-- Generator: Adobe Illustrator 15.0.2, SVG Export Plug-In  -->
<!DOCTYPE svg PUBLIC "-//W3C//DTD SVG 1.1//EN" "http://www.w3.org/Graphics/SVG/1.1/DTD/svg11.dtd" [
	<!ENTITY ns_flows "http://ns.adobe.com/Flows/1.0/">
]>
<svg version="1.1"
	 xmlns="http://www.w3.org/2000/svg" xmlns:xlink="http://www.w3.org/1999/xlink" xmlns:a="http://ns.adobe.com/AdobeSVGViewerExtensions/3.0/"
	 x="0px" y="0px" width="160px" height="142px" viewBox="-4.799 -5 160 142" enable-background="new -4.799 -5 160 142"
	 xml:space="preserve">
<defs>
</defs>
<path fill="#AE9962" d="M79.232,3.083c-0.717-1.113-2.044-1.647-3.295-1.235c-1.678,0.396-2.319,2.105-2.608,3.615
	c-0.442,2.563-0.412,5.522-0.031,8.101c0.382,2.06,0.58,4.606,2.777,5.492c1.007,0.259,2.013-0.092,2.639-0.809
	c1.144-1.312,1.357-3.006,1.678-4.653C80.711,10.116,80.94,6.043,79.232,3.083L79.232,3.083z M83.396,4.228
	c1.617,4.073,1.236,9.458-0.945,13.134c-1.557,2.487-4.348,3.845-7.292,3.265c-0.595-0.137-1.144-0.441-1.724-0.655
	c-0.138,0.259,0.106,0.442,0.076,0.687c-1.51,0.259-3.021,0.503-4.47,0.915c-0.411-0.152-0.595-0.595-0.869-0.946
	c-1.175-1.784-1.998-3.782-3.631-5.309c-0.595-0.427-1.388-0.519-2.09-0.519c-0.229-0.503-0.412-1.037-0.61-1.571
	c0.824-0.595,1.785-1.327,1.831-2.456c0.061-2.166-0.687-4.271-2.608-5.339c-1.205-0.595-2.578-0.046-3.616,0.519
	c2.075,4.744,4.303,9.443,6.469,14.156c0.243,0.534,0.793,0.931,1.327,1.068c0.457-0.016,0.945,0.061,1.357-0.107
	c0.244,0.275,0.396,0.732,0.427,1.099c-2.272,0.87-4.484,1.892-6.544,3.295h-0.152c-0.168-0.29-0.442-0.61-0.55-0.961
	c0.61-0.427,1.129-1.053,1.282-1.754c0.061-0.58-0.076-1.068-0.29-1.541c-2.136-4.165-4.226-8.359-6.407-12.509
	c-0.305-0.382-0.671-0.763-1.129-0.854c-0.945-0.092-1.632,0.366-2.273,0.992c-0.289,0.381-0.243,1.098-0.045,1.51
	c-0.138,0.29,0.274,0.351,0.305,0.579l0.732,1.129l5.187,7.292c1.281,1.877,2.883,4.043,2.014,6.483
	c-0.747,1.633-2.456,3.005-4.165,3.325c-1.586,0.184-2.943-0.457-4.072-1.418l-9.702-8.726c-0.55-0.382-1.343-0.794-2.014-0.366
	c-0.473,0.259-0.931,0.655-1.312,1.067c-0.351-0.229-0.701-0.503-1.021-0.809v-0.106c2.044-2.396,4.561-4.744,6.986-6.773h0.107
	l0.701,0.809c-0.61,0.625-1.083,1.312-0.885,2.273c0.122,0.595,0.595,1.037,0.961,1.525l9.046,9.046
	c0.61,0.473,1.297,0.885,2.151,0.702c0.885-0.29,1.662-1.068,1.8-2.015c0.076-0.945-0.351-1.678-0.777-2.425l-4.348-5.965
	c-1.007-1.373-2.014-2.746-3.036-4.104c-0.534-0.626-1.221-1.189-2.09-0.946c-0.396,0.123-0.763,0.336-1.145,0.52
	c-0.243-0.229-0.549-0.564-0.655-0.916c4.394-3.111,9.076-5.491,13.988-7.368c1.968-0.763,4.516-0.457,6.011,1.068
	c1.403,1.663,1.938,4.241,1.098,6.3c-0.473,1.038-1.403,1.983-2.38,2.624c0.306,0.26,0.778,0.122,1.129,0.26
	c2.441,0.595,3.814,3.264,5.34,5.095c0.503,0.61,1.175,0.915,1.876,0.915v-0.106c-1.892-1.724-2.898-4.012-3.371-6.407
	c-0.168-1.83-0.473-3.875-0.03-5.675c0.549-2.883,2.304-5.979,5.263-6.85c2.73-0.93,5.675-0.122,7.582,1.938
	C82.709,2.9,83.031,3.571,83.396,4.228L83.396,4.228z"/>
<path fill="#AE9962" d="M88.858,2.396c2.258,0.778,4.561,1.465,6.696,2.563c1.845,0.961,3.097,2.883,3.112,4.973
	c0.076,2.44-1.083,4.775-3.371,5.827c-1.8,0.915-4.348,0.672-5.995-0.411c0.076-0.382,0.198-0.764,0.366-1.129
	c0.869,0.167,1.83,0.335,2.669,0c2.105-1.221,2.93-3.646,2.67-6.041c-0.092-1.129-1.113-2.09-2.09-2.562
	c-0.412-0.153-0.809-0.336-1.281-0.366c-0.229,0.289-0.214,0.671-0.366,0.991c-1.19,3.92-2.334,7.856-3.509,11.792
	c-0.26,1.022-0.839,2.38,0.214,3.219c0.137,0.213,0.717,0.336,0.473,0.732c-0.138,0.152-0.046,0.641-0.396,0.473
	c-2.014-0.839-4.104-1.465-6.331-1.755c0-0.351-0.016-0.823,0.26-1.067c0.869,0.046,1.708-0.503,2.044-1.312
	c0.793-2.197,1.251-4.516,1.861-6.773c0.533-2.075,1.053-4.134,1.616-6.193c0.199-0.687,0.016-1.403-0.396-1.938
	c-0.366-0.473-0.885-0.58-1.327-0.885l0.184-0.839c0.32,0,0.655,0.122,0.991,0.183C87.577,2.062,88.202,2.275,88.858,2.396
	L88.858,2.396z"/>
<path fill="#AE9962" d="M111.739,24.501c-1.785,0.702-3.585,1.373-5.354,2.136l-0.137,0.138c0.442,0.701,0.899,1.419,1.357,2.12
	l0.106,0.046C109.115,27.461,110.488,26.057,111.739,24.501L111.739,24.501z M105.882,11.764c1.373,1.235,2.775,2.44,3.981,3.89
	c-0.122,0.519-0.458,0.977-0.687,1.464c-0.58,0.977-1.099,1.999-1.647,2.99c-0.321-0.046-0.61-0.152-0.885-0.32
	c-0.03-0.641,0.351-1.189,0.366-1.83c0.396-2.273-0.824-4.18-2.64-5.232l-0.106,0.03l-3.479,4.973
	c-0.015,0.229,0.244,0.397,0.412,0.488c0.534,0.366,1.281,0.58,1.938,0.32c0.534-0.213,0.991-0.549,1.419-0.991
	c0.335,0.062,0.564,0.32,0.777,0.549l-0.045,0.184l-4.059,5.278c-0.335,0-0.503-0.396-0.763-0.55
	c-0.046-0.488,0.352-0.885,0.428-1.357c0.244-1.022-0.382-1.785-1.053-2.334c-0.29,0.062-0.428,0.366-0.595,0.58
	c-1.114,1.632-2.212,3.249-3.356,4.912c0.138,0.365,0.518,0.686,0.762,0.945c1.235,1.083,3.005,1.77,4.683,1.099
	c4.471-1.587,8.833-3.417,13.287-5.02c0.61,0.962,1.175,1.923,1.693,2.898v0.184l-3.951,4.317l-7.261,7.871
	c-0.062,0.106-0.198,0.26-0.244,0.396c1.419,0.992,2.99-0.106,4.424-0.32c2.792-0.931,5.873-1.159,8.421-2.639
	c0.701-0.596,0.9-1.404,0.945-2.273c0.306-0.106,0.596-0.244,0.915-0.29c0.61,1.633,1.054,3.326,1.328,5.096l-0.046,0.214
	l-8.055,7.611c-0.534,0.428-0.977,0.915-1.465,1.435c2.426-0.123,4.852-0.458,7.262-0.732c0.823-0.046,1.678-0.671,1.938-1.465
	c0.106-0.229-0.062-0.625,0.259-0.701c0.336,0.061,0.717-0.306,0.977,0.046c0.106,1.846,0.138,3.844-0.03,5.674
	c-0.26,0.107-0.641,0.076-0.915,0.031c-0.153-0.763-0.58-1.603-1.435-1.801c-1.708-0.243-3.539,0.153-5.309,0.229
	c-2.929,0.213-5.857,0.595-8.817,0.655c-0.106-0.289-0.137-0.793,0.031-1.098l4.805-4.546l5.446-5.309l0.152-0.138
	c-0.29-0.138-0.61,0.076-0.915,0.107c-2.518,0.717-5.065,1.326-7.536,2.166c-0.854,0.274-1.449,1.159-1.465,2.044
	c-0.106,0.351,0.244,1.021-0.305,1.067c-0.229,0-0.412,0.138-0.656,0.138c-0.32-0.488-0.198-1.159-0.442-1.678
	c-0.854-2.975-1.938-5.873-3.722-8.467c0.092-0.305,0.473-0.396,0.731-0.55c0.55,0.672,1.236,1.404,2.197,1.145l0.473-0.259
	c0.885-0.9,1.739-1.785,2.563-2.746v-0.106c-0.52-0.931-1.19-1.846-1.801-2.716c-0.854,0.198-1.602,0.61-2.41,0.915l-3.768,1.571
	l-0.153-0.03c-2.212-2.532-4.866-4.484-7.657-6.011c0.076-0.335,0.259-0.671,0.519-0.915c1.343,0.32,2.242-0.656,2.898-1.678
	c2.059-3.402,4.377-6.697,6.407-10.099c0.274-0.58,0.122-1.343-0.229-1.831c-0.183-0.457-1.159-0.687-0.503-1.281
	c0.106-0.458,0.458-0.274,0.732-0.122C102.449,9.018,104.203,10.299,105.882,11.764L105.882,11.764z"/>
<path fill="#AE9962" d="M39.204,21.389c0.671,0.275,1.343,0.488,1.982,0.809c0.016,0.32-0.152,0.564-0.213,0.84
	c-1.465-0.107-3.188-0.32-4.516,0.335c-1.617,0.58-2.426,2.197-3.249,3.555c1.021,0.763,2.15,1.251,3.219,1.938l3.63,2.09
	c0.336-0.366,0.642-0.824,0.732-1.327c0.229-1.267-0.579-2.197-1.434-3.066c0.138-0.366,0.442-0.702,0.701-0.991
	c2.045,1.296,4.119,2.547,6.148,3.874c0.122,0.412-0.336,0.672-0.442,1.038c-0.641-0.168-1.175-0.55-1.861-0.596
	c-0.809-0.152-1.51,0.32-1.952,0.992c-0.107,0.305-0.412,0.595-0.397,0.915c2.182,1.266,4.333,2.608,6.56,3.768h0.107
	c1.403-1.418,1.876-3.447,1.419-5.415c-0.229-0.992-0.687-1.892-1.129-2.776c0.183-0.274,0.473-0.61,0.763-0.732
	c1.342,1.693,2.624,3.341,3.844,5.08l-0.061,0.229c-2.548,3.082-4.607,6.392-6.117,9.915c-0.336,0.031-0.596-0.259-0.916-0.365
	c-0.015-0.626,0.352-1.267,0.107-1.938c-0.488-1.587-2.273-2.029-3.509-2.822l-7.322-3.875c-1.617-0.488-3.555-2.761-5.126-0.701
	l-0.519,0.839c-0.381-0.016-0.717-0.381-1.098-0.504c-0.031-0.259,0.167-0.488,0.259-0.731c1.876-4.104,4.119-8.04,7.032-11.609
	C37.006,20.459,38.075,21.022,39.204,21.389L39.204,21.389z"/>
<path fill="#AE9962" d="M97.934,33.989c-1.357,0.442-2.638,1.068-3.951,1.647c0.336,0.55,0.763,1.068,1.129,1.617h0.153
	C96.195,36.11,97.049,35.118,97.934,33.989L97.934,33.989z M101.564,53.76c-0.961-0.61-2.029-0.977-3.005-1.541
	c-0.138-0.046-0.396-0.137-0.412,0.107l-0.244,1.403l0.183,0.061L101.564,53.76L101.564,53.76z M88.308,65.628l-0.106-0.519
	c-0.534,0.122-1.053,0.305-1.541,0.549v0.152c0.641,0.916,1.236,1.877,1.938,2.746C88.568,67.55,88.37,66.604,88.308,65.628
	L88.308,65.628z M73.587,60.609c-0.213,0.046-0.351-0.092-0.519-0.153c-1.418-0.259-2.532,0.886-3.325,1.907
	c-0.702,1.083-1.449,2.608-0.626,3.875c0.29,0.411,0.778,0.899,1.251,0.961c0.946-1.754,1.923-3.539,2.853-5.278
	C73.329,61.479,74,61.006,73.587,60.609L73.587,60.609z M84.678,22.563c0.183,0.229,0,0.564-0.107,0.809
	c-0.442-0.015-1.067-0.198-1.357,0.29c-0.351,0.915,0.183,1.83,0.259,2.746c0.153,0.625,0.26,1.266,0.474,1.876
	c1.007-0.915,1.968-1.952,2.791-3.005c0.107-0.29,0.107-0.596,0-0.885c-0.122-0.58-1.021-0.366-0.854-0.992
	c0.03-0.137,0.091-0.274,0.183-0.396c3.569,1.129,6.85,3.066,9.824,5.568c0.03,0.092,0.076,0.137,0.03,0.259
	c-0.427,0.931-0.839,1.861-1.281,2.776c-0.26,0.122-0.488-0.045-0.702-0.152c0.397-1.434,0.062-2.943-1.052-3.95
	c-0.229-0.184-0.458-0.352-0.702-0.474c-0.702,1.205-1.525,2.364-2.12,3.631c0.412,0.396,1.144,0.473,1.647,0.214
	c0.381-0.152,0.656-0.656,1.022-0.702c0.197,0.138,0.411,0.229,0.473,0.442c-0.87,1.251-1.602,2.472-2.441,3.737
	c-0.229-0.015-0.396-0.152-0.549-0.29c-0.122-0.244,0.183-0.457,0.244-0.701c0.138-0.488-0.016-0.961-0.32-1.312
	c-0.26-0.152-0.366-0.457-0.656-0.473c-0.747,1.159-1.479,2.318-2.06,3.539c0.793,0.672,1.663,1.235,2.792,0.992
	c3.021-1.145,5.949-2.518,8.923-3.769h0.153c0.396,0.687,0.991,1.297,1.204,2.045c-2.227,2.715-4.438,5.231-6.62,7.947
	c-0.092,0.138-0.138,0.29-0.122,0.473c0.214,0.26,0.641,0.138,0.915,0.122c2.288-0.839,4.667-1.403,6.895-2.38
	c0.412-0.32,0.549-0.763,0.473-1.281c0.214-0.076,0.366-0.244,0.626-0.183c0.609,2.014,1.373,4.012,1.159,6.33
	c-0.106,0.916-0.869,1.693-1.755,1.938c-1.128,0.305-2.288-0.046-3.005-1.021c-0.076-0.092-0.092-0.275-0.244-0.26
	c-0.503,1.617-2.182,2.182-3.447,2.959l-0.26,0.306l0.26,0.244c2.714,1.357,5.415,2.73,8.084,4.149
	c-0.138,0.655-0.306,1.312-0.549,1.937l-0.138,0.107l-7.292,0.03c-0.869,0.184-1.968-0.106-2.593,0.595
	c0.747,0.396,1.586,0.55,2.38,0.839c1.585,0.458,3.081,1.129,4.682,1.541c0.595,0.062,1.037-0.32,1.388-0.732
	c0.199,0.122,0.642,0.138,0.443,0.504c-0.702,1.281-1.358,2.562-2.35,3.707c-0.198,0.091-0.366-0.152-0.549-0.229
	c0.046-0.365,0.259-0.747,0.076-1.129c-0.274-0.442-0.763-0.503-1.175-0.701c-1.267-0.504-2.578-0.9-3.875-1.343v0.184
	c1.251,1.8,2.532,3.585,3.737,5.415c-0.183,0.396-0.564,0.58-0.839,0.87c-2.013-1.068-3.981-2.243-5.979-3.326
	c-0.062,0.03-0.016,0.122-0.031,0.184c0.732,1.434,1.236,2.943,2.091,4.316c0.305,0.366,0.854,0.397,1.281,0.26l0.03-0.03
	c0.138,0.122,0.32,0.305,0.366,0.503c-0.824,0.687-1.77,1.205-2.67,1.755c-0.289,0.137-0.351-0.29-0.473-0.474
	c0.382-0.457,0.869-1.007,0.503-1.647c-0.747-2.181-1.83-4.24-2.745-6.361c-0.198,0.046-0.184,0.32-0.29,0.474
	c-0.366,1.662,0.184,3.233,0.29,4.835c0.213,1.389,0.32,2.838,0.519,4.241c-0.61,0.259-1.221,0.519-1.907,0.625
	c-1.632-2.303-3.097-4.576-4.759-6.849c-0.306-0.382-0.732-0.809-1.205-0.84l-0.077,0.077v6.986c0.107,0.336,0.198,0.687,0.55,0.885
	c0.29,0.137,0.793-0.046,0.732,0.473c0.121,0.29-0.184,0.229-0.321,0.29c-1.998,0-3.966-0.03-5.674-0.702
	c-0.931-0.563-1.267-1.647-1.145-2.699c0.092-0.886,0.809-1.663,1.617-1.983c-1.465-1.099-1.19-2.944-1.831-4.394
	c-0.106-0.092-0.214-0.351-0.365-0.137c-1.114,1.738-1.923,3.615-2.898,5.415c-0.214,0.351-0.275,0.839-0.138,1.235
	c0.076,0.519,1.113,0.763,0.473,1.358c-0.29-0.046-0.549-0.184-0.809-0.29c-1.8-1.175-4.576-2.228-4.79-4.729
	c-0.229-2.105,1.007-3.829,2.594-5.004c0.839-0.533,1.876-0.915,2.929-0.595c1.647,0.641,3.097,1.755,4.76,2.35
	c0.244,0.214,0.122,0.58,0.259,0.839c0.274,1.449,0,3.402,1.647,3.997v0.579c-0.579-0.03-1.098,0.26-1.388,0.732
	c-0.412,0.672-0.366,1.8,0.106,2.41c0.474,0.595,1.159,0.672,1.861,0.702l0.076-0.076v-6.483c-0.138-0.626-0.198-1.511-1.022-1.647
	c-0.121-0.138-0.091-0.382-0.045-0.55l0.121-0.061c2.06,0.458,4.348,0.138,6.255-0.442c0.106,0.183,0.26,0.366,0.214,0.625
	c-0.26,0.107-0.504,0.336-0.61,0.61c-0.168,0.641,0.503,1.037,0.732,1.587c0.137,0.183,0.198,0.427,0.427,0.549
	c0.717-0.213,1.403-0.458,2.06-0.778c-0.168-0.839,0.122-1.952-0.732-2.41c-0.366-0.213-1.022,0.306-1.099-0.289
	c-0.121-0.046-0.061-0.168-0.076-0.26c1.19-0.625,2.396-1.221,3.479-2.09c1.464,0.701,2.822,1.678,4.24,2.456
	c0.321,0.152,0.642,0.427,0.962,0.473v-0.106c-1.068-1.617-2.335-3.158-3.341-4.806c1.037-1.434,1.678-3.035,2.242-4.683
	c0.823-0.244,0.305,0.687,0.656,0.961c0.609,0.595,1.54,0.381,2.378,0.427c0.397-0.61,0.428-1.388,0.55-2.12
	c-0.474-0.366-1.022-0.503-1.541-0.763c-0.366-0.138-0.717,0.046-0.991,0.26c-0.168,0.137-0.244,0.365-0.366,0.503l-0.504-0.138
	c0.046-0.945,0.214-1.938,0.138-2.975c0.076-0.412-0.32-0.991,0.184-1.235c1.281-0.672,2.699-0.961,3.813-2.014
	c0.411-0.32-0.122-1.327,0.731-1.145c0.168,0.55,0.61,1.099,1.175,1.282c0.778,0.289,1.571-0.016,2.197-0.442
	c0.625-0.442,0.717-1.19,0.579-1.861c-0.046-0.244-0.137-0.473-0.259-0.702c-2.578,0.763-5.11,1.678-7.642,2.563
	c-0.412,0.229-0.428,0.731-0.412,1.144c-0.198,0.092-0.428,0.092-0.656,0.138c-0.595-1.663-1.098-3.387-1.968-4.942
	c-0.29-0.58-0.732-1.145-0.915-1.709c0.137-0.168,0.29-0.306,0.503-0.306c0.153,0.366,0.534,0.458,0.809,0.672
	c1.113,0.106,1.525-1.083,2.197-1.693c-0.077-0.351-0.412-0.625-0.58-0.915l-0.991-1.312c-1.267,0.428-2.472,1.022-3.707,1.541
	l-0.214-0.046c-1.525-1.221-3.127-2.242-4.866-2.959c-0.016-0.885,1.083-0.107,1.419-0.656c0.396-0.305,0.595-0.732,0.809-1.145
	c1.159-2.104,2.395-4.18,3.447-6.33c0.076-0.306,0.03-0.656-0.152-0.915c-0.214-0.366-0.641-0.306-0.992-0.26
	c-0.563,0.229-1.006,0.778-1.418,1.145c-0.977,1.144-2.228,2.196-3.112,3.249c-0.29,1.022-0.656,1.998-0.885,3.035
	c0,0.275,0,0.534,0.152,0.732c0.184,0.382,1.007,0.412,0.55,0.961l-0.077,0.107c-1.434-0.458-2.944-0.748-4.469-0.946
	c0.015-0.259,0.091-0.488,0.229-0.701c0.549-0.031,1.067-0.244,1.342-0.763c0.443-0.885,0.489-1.923,0.854-2.822
	c-0.549-2.014-0.809-4.135-1.617-6.041c-0.259-0.412-0.701-0.778-1.129-0.915c-0.061-0.199,0.031-0.428,0.107-0.626
	C81.078,21.786,82.909,22.121,84.678,22.563L84.678,22.563z"/>
<path fill="#AE9962" d="M75.266,22.091c0.366,1.068,0.854,2.09,1.22,3.143c-0.183,0.122-0.366,0.229-0.595,0.229
	c-0.595-1.099-1.587-2.196-2.929-2.196c-0.625-0.03-1.221,0-1.724,0.259c0.366,1.236,0.595,2.532,1.067,3.723
	c0.473-0.046,0.885-0.32,1.175-0.732c0.229-0.396,0.229-0.885,0.32-1.343c0.168-0.167,0.396-0.167,0.625-0.152
	c0.275,1.495,0.656,2.96,0.809,4.5c-0.198,0.031-0.396,0.184-0.625,0.077c-0.168-0.443-0.366-0.916-0.809-1.175
	c-0.336-0.168-0.87-0.306-1.205-0.031c0.366,1.511,0.732,3.021,1.251,4.47c1.754-0.03,3.111-1.876,3.661-3.371
	c0.183-0.076,0.396-0.016,0.549,0.076c-0.229,1.297-0.519,2.578-0.778,3.875c-0.381,0.244-0.899,0.152-1.342,0.214
	c-2.96,0.427-5.721,1.326-8.207,2.867c-0.214,0.016-0.244-0.229-0.366-0.335c-0.152-0.26,0.26-0.351,0.29-0.58
	c0.137-0.427-0.062-0.809-0.26-1.144c-0.61-1.053-1.205-2.105-1.892-3.143c-0.823,0.427-1.602,1.007-2.318,1.602
	c0.915,1.129,1.83,2.272,2.868,3.295c0.335,0.427,1.357-0.274,1.159,0.625c-1.068,0.794-2.014,1.648-2.853,2.64
	c-0.184-0.03-0.32-0.184-0.474-0.336c0.168-0.381,0.29-0.854,0.184-1.312l-0.26-0.473c-1.906-2.136-3.92-4.257-6.041-6.271
	c-0.305-0.198-0.747-0.076-1.052,0.046l-0.153,0.138c0.809,0.687,1.785,1.189,2.594,1.876c-0.062,0.184-0.122,0.396-0.29,0.55
	c-0.473-0.107-0.869-0.382-1.357-0.474c-0.977-0.274-2.105-0.092-2.746,0.656v0.076c2.426,1.8,4.928,3.555,7.368,5.415
	c0.32,0.168,0.717,0.275,1.099,0.184c0.137-0.122,0.29-0.229,0.503-0.184c0.152,0.123,0.427,0.275,0.412,0.504
	c-0.961,1.175-1.647,2.517-2.38,3.813c-0.229-0.03-0.412-0.213-0.595-0.29c-0.076-0.381,0.183-0.747,0.046-1.144
	c-0.504-0.931-1.557-1.373-2.35-2.014c-1.938-1.312-3.844-2.746-5.781-4.058c-0.351,0.122-0.382,0.564-0.473,0.885
	c-0.153,1.342,0.533,2.44,1.388,3.432c-0.016,0.214-0.244,0.32-0.366,0.474h-0.152l-3.219-2.38v-0.244
	c2.242-4.332,5.919-8.649,10.145-11.288c0.244,0,0.335,0.335,0.442,0.519c-0.122,0.335-0.595,0.473-0.702,0.839
	c-0.106,0.503,0,0.991,0.336,1.357c0.641,0.732,1.281,1.525,1.968,2.272h0.122l2.304-1.616v-0.214
	c-0.748-1.053-1.083-2.456-2.304-3.112c-0.549-0.274-1.235,0.58-1.434-0.289v-0.229c1.647-0.991,3.279-2.028,5.095-2.639
	c0.106,0.214,0.229,0.442,0.183,0.671c-0.32,0.184-0.763,0.366-0.854,0.763c-0.092,0.748,0.411,1.312,0.701,1.938
	c1.083,2.166,2.396,4.21,3.479,6.377c0.259,0.32,0.641,0.609,1.099,0.442c0.259-0.138,0.411-0.306,0.549-0.55
	c0.076-1.495-0.717-2.7-1.022-4.073c-0.579-1.495-0.885-3.097-1.571-4.53c-0.396-0.641-1.129-0.671-1.83-0.626
	c-0.046-0.197-0.214-0.366-0.184-0.595c2.578-1.113,5.37-1.708,8.345-1.892L75.266,22.091L75.266,22.091z"/>
<path fill="#AE9962" d="M78.347,26.332c0.351,0.305,0.427,0.747,0.336,1.175c-0.122,0.229-0.336,0.441-0.55,0.549
	c-0.366,0.076-0.763,0.046-1.037-0.214c-0.29-0.274-0.366-0.732-0.214-1.099c0.153-0.289,0.442-0.533,0.763-0.595
	C77.92,26.103,78.133,26.225,78.347,26.332L78.347,26.332z"/>
<path fill="#AE9962" d="M80.254,35.927c0.701,1.113,0.427,2.67-0.184,3.737c-0.473,0.58-0.9,1.175-1.617,1.465
	c0.152-0.336,0.442-0.687,0.656-1.022c0.641-0.885,0.656-2.196,0.412-3.265c-0.274-0.823-0.702-1.632-1.465-2.227
	c0.092-0.168,0.32,0,0.474,0C79.202,34.829,79.857,35.286,80.254,35.927L80.254,35.927z"/>
<path fill="#AE9962" d="M78.317,36.445c0.717,1.053,0.381,2.686-0.152,3.737c-0.275,0.428-0.763,0.916-1.175,1.16
	c-0.031-0.184,0.213-0.366,0.259-0.58c0.168-0.062,0.122-0.26,0.184-0.396c0.579-1.267,0.396-2.929-0.29-4.073
	c-0.427-0.595-1.037-1.175-1.647-1.541C76.715,34.722,77.722,35.408,78.317,36.445L78.317,36.445z"/>
<path fill="#AE9962" d="M82.665,36.919c0.244,1.342-0.26,2.578-1.312,3.447c-0.473,0.335-0.961,0.641-1.51,0.793
	c1.327-1.342,2.41-3.265,1.587-5.126c-0.184-0.487-0.61-0.899-0.992-1.281C81.444,34.98,82.389,35.927,82.665,36.919L82.665,36.919z
	"/>
<path fill="#AE9962" d="M76.364,37.254c0.687,1.465,0.397,3.295-0.655,4.5l-0.184,0.106c0.778-1.632,0.382-3.812-0.655-5.201
	c-0.489-0.564-1.129-1.221-1.907-1.312C74.366,35.042,75.769,35.957,76.364,37.254L76.364,37.254z"/>
<path fill="#AE9962" d="M84.601,38.2c0,1.297-0.808,2.486-1.968,3.081c-0.396,0.183-0.869,0.229-1.327,0.244
	c-0.046-0.062-0.122-0.016-0.183-0.062v-0.045c1.281-0.55,2.272-1.617,2.502-3.006c0.152-1.159-0.184-2.227-0.854-3.111
	C83.961,35.744,84.51,37.025,84.601,38.2L84.601,38.2z"/>
<path fill="#AE9962" d="M86.478,38.535c0.106,1.205-0.473,2.182-1.434,2.929c-0.641,0.366-1.358,0.702-2.197,0.504
	c0.016-0.183,0.214-0.046,0.29-0.138c1.205-0.396,2.182-1.602,2.38-2.822c0.229-1.144-0.152-2.135-0.793-2.975l0.03-0.061
	C85.746,36.431,86.326,37.498,86.478,38.535L86.478,38.535z"/>
<path fill="#AE9962" d="M74.656,38.49c0.564,1.296,0.427,3.127-0.596,4.134c0.062-0.794,0.244-1.892-0.03-2.746
	c-0.289-1.357-1.586-2.685-2.898-3.143c-0.427-0.122-0.869-0.198-1.357-0.214c0.977-0.533,2.35-0.641,3.295,0
	C73.787,36.979,74.35,37.727,74.656,38.49L74.656,38.49z"/>
<path fill="#AE9962" d="M87.866,41.388c-0.687,1.084-1.952,1.693-3.295,1.465c-0.167-0.061-0.335-0.106-0.473-0.183
	c0.229-0.123,0.595-0.123,0.869-0.229c1.053-0.29,2.014-1.312,2.35-2.334c0.274-0.915-0.016-1.846-0.26-2.669
	C87.897,38.49,88.492,40.061,87.866,41.388L87.866,41.388z"/>
<path fill="#AE9962" d="M72.779,39.771c0.687,1.129,0.642,2.913-0.106,3.996l-0.184,0.184c0.184-1.571,0.031-3.371-1.434-4.394
	c-1.113-0.946-2.548-1.389-4.058-1.175c0.946-0.809,2.548-1.067,3.737-0.519C71.543,38.261,72.337,39.008,72.779,39.771
	L72.779,39.771z"/>
<path fill="#AE9962" d="M89.514,42.304c-0.382,0.899-1.343,1.495-2.273,1.754c-0.687,0.122-1.357-0.03-1.938-0.29v-0.106
	c1.495-0.046,2.959-0.854,3.585-2.273c0.366-0.747,0.122-1.708-0.076-2.456C89.468,39.878,89.925,41.144,89.514,42.304
	L89.514,42.304z"/>
<path fill="#AE9962" d="M71.421,41.754c0.534,0.946,0.626,2.38,0.046,3.326c0.046-1.892-1.113-3.417-2.792-4.165
	c-1.159-0.579-2.837-0.503-3.981,0.062c0.809-1.053,2.029-1.679,3.402-1.495C69.393,39.771,70.689,40.488,71.421,41.754
	L71.421,41.754z"/>
<path fill="#AE9962" d="M56.929,40.793c0.352,0.351,0.366,0.885,0.29,1.357c-0.122,0.412-0.564,0.687-0.945,0.778
	c-0.336-0.016-0.626-0.122-0.886-0.305c-0.365-0.32-0.351-0.885-0.289-1.312c0.122-0.381,0.473-0.641,0.839-0.763
	C56.32,40.519,56.67,40.564,56.929,40.793L56.929,40.793z"/>
<path fill="#AE9962" d="M90.718,44.058c-0.457,0.747-1.144,1.343-2.013,1.389c-0.87,0.137-1.709-0.016-2.38-0.474v-0.076
	c1.754,0.092,3.523-0.595,4.21-2.304c0.198-0.396,0.076-0.93,0.106-1.388C91.13,41.952,91.146,43.249,90.718,44.058L90.718,44.058z"
	/>
<path fill="#AE9962" d="M53.055,41.86c0.152,0.245,0,0.534,0,0.81l-0.122,0.106c-1.755-0.244-3.356,0.473-4.165,1.983
	c-0.274,0.427-0.32,0.976-0.473,1.464c1.617,0.336,3.265,0.641,4.942,0.87c0.198-0.306,0.366-0.748,0.138-1.099
	c-0.092-0.763-0.946-1.099-1.541-1.357c0.076-0.214,0.046-0.474,0.183-0.656c0.504-0.062,0.992,0.183,1.465,0.26
	c1.144,0.259,2.318,0.487,3.447,0.763c0.198,0.243-0.046,0.563-0.076,0.854c-0.717,0-1.662-0.122-2.014,0.656
	c-0.046,0.229-0.214,0.427-0.183,0.687c1.281,0.503,2.746,0.549,4.18,0.671c0.763-0.122,0.961-0.9,1.235-1.464
	c0.214,0.046,0.458,0.015,0.626,0.183c-0.366,1.739-0.596,3.539-0.809,5.339c-0.244,0.076-0.504,0.016-0.732-0.076
	c-0.092-0.519-0.184-1.175-0.763-1.357c-2.7-0.671-5.614-0.793-8.421-1.235c-0.839-0.198-1.892-0.184-2.456,0.503
	c-0.396,0.306-0.168,1.419-1.021,0.885c0.229-2.73,0.747-5.431,1.678-7.901c0.183-0.488,0.351-0.992,0.625-1.435
	C50.217,41.495,51.636,41.678,53.055,41.86L53.055,41.86z"/>
<path fill="#AE9962" d="M70.765,44.79c0.214,0.549,0.092,1.251-0.03,1.8c-0.152-0.366-0.274-0.823-0.442-1.221
	c-0.747-1.434-2.242-2.532-3.844-2.623c-1.251-0.168-2.38,0.167-3.326,0.839c-0.03-0.29,0.306-0.458,0.397-0.702
	c0.93-1.083,2.272-1.388,3.661-1.175C68.707,42.09,70.247,43.219,70.765,44.79L70.765,44.79z"/>
<path fill="#AE9962" d="M80.91,43.219c0.244,0.732-0.183,1.403-0.763,1.861c-0.168,0.061-0.305,0.183-0.488,0.183
	c0-0.214,0.26-0.412,0.366-0.625c0.396-0.61,0.229-1.557-0.137-2.121c-0.122-0.198-0.366-0.351-0.412-0.579
	C80.071,42.09,80.788,42.562,80.91,43.219L80.91,43.219z"/>
<path fill="#AE9962" d="M79.186,42.853c0.29,0.519,0.412,1.373,0.046,1.907c-0.214,0.289-0.504,0.549-0.854,0.579
	c0.306-0.625,0.671-1.464,0.26-2.166c-0.32-0.549-0.885-0.809-1.419-0.977c0.26-0.229,0.687-0.03,1.022-0.046
	C78.591,42.304,78.958,42.486,79.186,42.853L79.186,42.853z"/>
<path fill="#AE9962" d="M82.557,43.661c0.016,0.641-0.213,1.235-0.809,1.602c-0.259,0.198-0.595,0.184-0.915,0.229
	c0.092-0.213,0.382-0.32,0.519-0.519c0.442-0.579,0.717-1.449,0.29-2.12c-0.137-0.152-0.244-0.336-0.29-0.519
	C81.978,42.517,82.375,43.066,82.557,43.661L82.557,43.661z"/>
<path fill="#AE9962" d="M77.767,43.401c0.352,0.58,0.274,1.373-0.076,1.938l-0.229,0.26c-0.046-0.946-0.184-1.968-1.099-2.456
	c-0.335-0.168-0.701-0.274-1.098-0.336C76.075,42.395,77.234,42.547,77.767,43.401L77.767,43.401z"/>
<path fill="#AE9962" d="M83.838,44.79c-0.167,0.61-0.687,1.159-1.312,1.281c-0.29,0.016-0.61,0.016-0.778-0.184
	c0.336-0.137,0.656-0.305,0.961-0.519c0.442-0.427,0.656-1.007,0.504-1.647c-0.046-0.198-0.183-0.366-0.138-0.609
	C83.625,43.479,84.006,44.104,83.838,44.79L83.838,44.79z"/>
<path fill="#AE9962" d="M76.593,44.53c0.229,0.458,0.213,1.16-0.077,1.571l-0.152,0.122c0.031-0.869-0.519-1.586-1.205-2.06
	c-0.396-0.183-0.899-0.259-1.357-0.213c0.396-0.29,0.915-0.519,1.465-0.366C75.799,43.722,76.349,43.981,76.593,44.53L76.593,44.53z
	"/>
<path fill="#AE9962" d="M69.636,46.102c0.244,0.672,0.397,1.419,0.32,2.166c-0.396-0.625-0.609-1.388-1.281-1.937
	c-1.159-1.175-2.7-1.571-4.393-1.358c-0.504,0.122-0.962,0.366-1.419,0.58c-0.274,0.138-0.396,0.396-0.702,0.442
	c0.32-1.113,1.449-2.014,2.563-2.196C66.738,43.463,68.707,44.408,69.636,46.102L69.636,46.102z"/>
<path fill="#AE9962" d="M91.893,45.187c-0.152,0.946-0.885,1.784-1.83,1.983c-1.175,0.259-2.426-0.03-3.188-1.022v-0.106
	c0.702,0.274,1.479,0.381,2.304,0.32c0.427-0.092,0.823-0.229,1.22-0.442c0.809-0.519,1.206-1.343,1.389-2.197
	C92.046,44.088,91.909,44.729,91.893,45.187L91.893,45.187z"/>
<path fill="#AE9962" d="M84.967,45.812c-0.167,0.474-0.533,0.962-1.052,1.068c-0.428,0.03-1.007,0.122-1.282-0.229
	c0.718,0.031,1.312-0.381,1.725-0.945c0.229-0.458,0.305-1.067,0.213-1.571C84.983,44.546,84.999,45.187,84.967,45.812
	L84.967,45.812z"/>
<path fill="#AE9962" d="M75.449,45.309c0.29,0.473,0.427,1.205,0.152,1.754l-0.076,0.077c-0.183-0.87-0.809-1.831-1.754-1.983
	c-0.519-0.138-0.992,0.061-1.389,0.335c0.473-0.687,1.281-1.113,2.121-0.885C74.854,44.76,75.22,44.942,75.449,45.309L75.449,45.309
	z"/>
<path fill="#AE9962" d="M91.344,48.848c-0.823,0.504-2.12,0.488-2.929-0.03c-0.458-0.274-0.885-0.748-1.099-1.205
	c0.991,0.641,2.44,0.945,3.585,0.442c0.977-0.519,1.587-1.557,1.8-2.563C92.93,46.804,92.458,48.146,91.344,48.848L91.344,48.848z"
	/>
<path fill="#AE9962" d="M74.686,46.65c0.152,0.352,0.336,0.764,0.184,1.145c-0.336-0.595-0.992-1.067-1.679-1.145
	c-0.595-0.015-1.099,0.169-1.586,0.412c0.305-0.488,0.839-0.991,1.403-1.144C73.695,45.857,74.304,46.102,74.686,46.65L74.686,46.65
	z"/>
<path fill="#AE9962" d="M85.928,46.285c0.077,0.625-0.045,1.266-0.549,1.647c-0.305,0.244-0.717,0.32-1.099,0.229
	c-0.305-0.122-0.655-0.32-0.809-0.595c0.656,0.076,1.312-0.046,1.801-0.504c0.229-0.32,0.473-0.701,0.473-1.144
	C85.837,45.965,85.914,46.147,85.928,46.285L85.928,46.285z"/>
<path fill="#AE9962" d="M80.543,46.728c0.153,0.335,0.046,0.732-0.183,0.991c-0.184,0.122-0.382,0.229-0.626,0.184
	c-0.091-0.214,0.168-0.306,0.184-0.474c0.244-0.519-0.092-0.976-0.29-1.388C79.995,46.102,80.345,46.392,80.543,46.728
	L80.543,46.728z"/>
<path fill="#AE9962" d="M69.347,48.421c0.198,0.473,0.381,0.961,0.366,1.525c-0.87-1.449-2.472-2.67-4.257-2.67
	c-1.754-0.106-3.249,0.885-4.164,2.35c0-1.419,1.266-2.762,2.517-3.341c1.19-0.32,2.67-0.244,3.707,0.365
	c0.336,0.123,0.61,0.336,0.915,0.55C68.843,47.566,69.087,47.993,69.347,48.421L69.347,48.421z"/>
<path fill="#AE9962" d="M79.232,46.62c0.122,0.366,0.244,0.87-0.122,1.175c-0.062,0.092-0.152,0.138-0.244,0.138
	c0.016-0.55-0.122-1.113-0.625-1.389c-0.199-0.122-0.458-0.061-0.656-0.183c0.244-0.306,0.747-0.274,1.129-0.214
	C78.896,46.27,79.156,46.392,79.232,46.62L79.232,46.62z"/>
<path fill="#AE9962" d="M81.749,47.276c0.092,0.32-0.137,0.488-0.289,0.702c-0.214,0.167-0.52,0.274-0.809,0.183
	c0.061-0.198,0.366-0.382,0.473-0.595c0.183-0.29,0.137-0.778,0-1.099C81.459,46.59,81.672,46.926,81.749,47.276L81.749,47.276z"/>
<path fill="#AE9962" d="M77.875,47.276c0.229,0.184,0.259,0.458,0.32,0.702c-0.062,0.213,0,0.457-0.184,0.625
	c-0.244-0.412-0.609-0.946-1.098-1.098c-0.214-0.046-0.519-0.092-0.732,0.03c0.092-0.29,0.457-0.336,0.701-0.474
	C77.218,47.002,77.645,46.956,77.875,47.276L77.875,47.276z"/>
<path fill="#AE9962" d="M82.527,48.481c-0.229,0.504-0.839,0.442-1.251,0.336c-0.03-0.031-0.061-0.092-0.106-0.076
	c0.274-0.26,0.809-0.184,0.991-0.626c0.168-0.213,0.198-0.503,0.184-0.793C82.451,47.657,82.725,48.069,82.527,48.481L82.527,48.481
	z"/>
<path fill="#AE9962" d="M74.32,48.268c0.244,0.306,0.168,0.748,0.29,1.099c-0.26-0.076-0.32-0.396-0.55-0.58
	c-0.487-0.411-1.098-0.763-1.83-0.549c-0.473,0.092-0.869,0.352-1.281,0.61c0.351-0.61,0.991-1.312,1.724-1.388
	C73.343,47.414,73.969,47.688,74.32,48.268L74.32,48.268z"/>
<path fill="#AE9962" d="M85.7,49.396c-0.412,0.168-0.915,0.198-1.312-0.03C84.19,49.198,83.9,49,83.838,48.741
	c0.565,0.152,1.389,0.213,1.938-0.184c0.32-0.198,0.474-0.519,0.656-0.809C86.524,48.39,86.294,49.062,85.7,49.396L85.7,49.396z"/>
<path fill="#AE9962" d="M77.508,48.817c0.076,0.198,0.152,0.442,0.076,0.655c-0.458-0.365-0.991-0.641-1.617-0.473
	c-0.259,0.016-0.442,0.306-0.655,0.29c0.183-0.473,0.503-0.915,1.021-1.053C76.806,48.237,77.249,48.375,77.508,48.817
	L77.508,48.817z"/>
<path fill="#AE9962" d="M69.454,51.014c0.061,0.184,0.168,0.351,0.183,0.55c-1.434-1.449-3.462-2.258-5.537-1.571
	c-1.281,0.335-2.426,1.418-2.99,2.639c-0.076-1.251,0.534-2.38,1.465-3.188c1.175-0.701,2.639-1.419,4.088-0.809
	C67.776,48.985,69.042,49.839,69.454,51.014L69.454,51.014z"/>
<path fill="#AE9962" d="M100.237,48.786c0.198,0.184,0.259,0.534,0.229,0.794c-0.076,0.32-0.351,0.534-0.625,0.671
	c-0.336,0.016-0.641-0.03-0.885-0.229c-0.214-0.214-0.366-0.58-0.26-0.915c0.076-0.275,0.396-0.458,0.626-0.58
	C99.688,48.466,99.978,48.589,100.237,48.786L100.237,48.786z"/>
<path fill="#AE9962" d="M80.208,48.741c0.213,0.229,0.32,0.533,0.229,0.839c-0.305,0.183-0.29-0.366-0.519-0.504
	c-0.168-0.274-0.656-0.229-0.626-0.473C79.598,48.649,80.01,48.481,80.208,48.741L80.208,48.741z"/>
<path fill="#AE9962" d="M91.741,50.861c-0.915,0.519-2.272,0.488-3.143-0.106c-0.61-0.397-1.021-0.992-1.099-1.679
	c0.199,0.016,0.214,0.229,0.397,0.32c0.915,0.732,2.15,1.084,3.341,0.702c0.641-0.32,1.357-0.747,1.754-1.434
	C93.038,49.549,92.443,50.343,91.741,50.861L91.741,50.861z"/>
<path fill="#AE9962" d="M82.741,49.656c-0.214,0.259-0.534,0.382-0.839,0.29c-0.214-0.107-0.473-0.29-0.596-0.55
	c0.52,0.076,1.236,0.168,1.617-0.427C83.045,49.214,82.893,49.458,82.741,49.656L82.741,49.656z"/>
<path fill="#AE9962" d="M74.29,49.992c0.046,0.137,0.168,0.259,0.137,0.442c-0.793-0.504-2.089-0.778-2.929-0.184
	c-0.396,0.229-0.655,0.641-0.869,1.022c-0.076-0.718,0.32-1.419,0.915-1.907c0.458-0.274,1.037-0.488,1.602-0.29
	C73.587,49.214,74.015,49.58,74.29,49.992L74.29,49.992z"/>
<path fill="#AE9962" d="M79.888,49.656c-0.062,0.092,0.106,0.122,0,0.183c-0.336-0.167-0.885-0.229-1.205,0l-0.366,0.412
	c-0.152-0.259,0.091-0.519,0.214-0.732c0.152-0.167,0.396-0.29,0.625-0.335C79.46,49.214,79.75,49.352,79.888,49.656L79.888,49.656z
	"/>
<path fill="#AE9962" d="M114.744,49.763c0.229,0.32,0.336,0.763,0.184,1.145c-0.184,0.488-0.488,0.869-1.037,0.945
	c-0.412,0.062-0.84-0.076-1.16-0.32c-0.396-0.381-0.488-0.961-0.335-1.464c0.198-0.474,0.564-0.717,1.021-0.854
	C113.967,49.122,114.454,49.352,114.744,49.763L114.744,49.763z"/>
<path fill="#AE9962" d="M86.692,49.473c0.015,0.55-0.077,1.221-0.656,1.511c-0.396,0.274-0.991,0.274-1.389,0
	c-0.595-0.229-0.731-0.869-0.809-1.357c0.412,0.488,1.068,0.945,1.831,0.687C86.127,50.267,86.417,49.717,86.692,49.473
	L86.692,49.473z"/>
<path fill="#AE9962" d="M106.095,49.809c0.046,0.61,0.274,1.251,0.84,1.647c1.22,0.778,2.761,0.717,4.104,1.175
	c2.379,0.519,4.713,1.129,7.108,1.602c0.961,0.138,1.754-0.412,2.196-1.205c0.062-0.106,0.046-0.259,0.184-0.336
	c0.305,0.092,0.809-0.061,0.915,0.306c-0.306,2.044-0.809,4.012-1.435,5.919l-0.106,0.076c-3.844,0.198-7.703,0.335-11.532,0.595
	l-0.076,0.062l1.876,1.647l6.224,5.277c0.077,0.062,0.122,0.153,0.107,0.26c-1.083,1.8-2.136,3.677-3.479,5.309
	c-0.305-0.061-0.549-0.274-0.809-0.412c-0.015-0.229,0.198-0.473,0.336-0.687c0.274-0.473,0.274-1.144,0-1.616
	c-0.29-0.412-0.763-0.672-1.175-0.916c-2.913-1.464-5.751-3.065-8.68-4.5c-0.58-0.26-1.389-0.183-1.861,0.214
	c-0.214,0.122-0.381,0.427-0.671,0.412c-0.214-0.199-0.687-0.275-0.656-0.596c1.373-1.616,2.44-3.432,3.479-5.231
	c0.259,0.061,0.503,0.152,0.732,0.289c0,0.58-0.168,1.267,0.152,1.8c0.61,0.84,1.54,1.068,2.334,1.541l6.666,3.143
	c0.046,0,0.092,0.016,0.106-0.03l-1.83-1.647l-7.17-6.193c-0.168-0.214-0.58-0.336-0.366-0.687c0.168-0.214,0.062-0.595,0.396-0.672
	c1.602-0.061,3.25-0.137,4.806-0.213l7.353-0.396c0.183-0.092,0.458,0.03,0.626-0.122c-0.352-0.229-0.809-0.214-1.205-0.366
	c-2.792-0.61-5.522-1.403-8.391-1.861c-0.458,0.03-0.945,0.03-1.281,0.366c-0.396,0.244-0.351,1.022-0.946,0.809
	c-0.198-0.152-0.793-0.092-0.519-0.549c0.382-1.404,0.61-2.853,0.809-4.317C105.516,49.58,105.851,49.687,106.095,49.809
	L106.095,49.809z"/>
<path fill="#AE9962" d="M77.402,50.251v0.138c-0.809-0.107-1.572,0.137-2.06,0.809c-0.229-0.184-0.03-0.52-0.03-0.763
	c0.167-0.366,0.549-0.687,0.945-0.732C76.746,49.626,77.126,49.9,77.402,50.251L77.402,50.251z"/>
<path fill="#AE9962" d="M82.115,50.541c0.26-0.016,0.55-0.122,0.732-0.184c-0.076,0.352-0.335,0.61-0.687,0.687
	c-0.29,0.062-0.503-0.061-0.701-0.213c-0.199-0.199-0.306-0.442-0.366-0.702l0.076-0.137C81.444,50.281,81.749,50.465,82.115,50.541
	L82.115,50.541z"/>
<path fill="#AE9962" d="M79.842,50.281c-0.32,0.168-0.778,0.55-0.763,0.992v0.32c-0.214,0.061-0.352-0.229-0.442-0.427
	c0-0.275,0-0.535,0.152-0.732c0.214-0.306,0.58-0.352,0.915-0.26C79.75,50.221,79.811,50.221,79.842,50.281L79.842,50.281z"/>
<path fill="#AE9962" d="M81.093,51.197c0.259,0.274,0.609,0.351,0.991,0.366c0,0.152-0.183,0.167-0.259,0.259
	c-0.352,0.092-0.718,0.016-0.992-0.229c-0.137-0.214-0.366-0.442-0.214-0.732l0.138-0.32C80.894,50.724,80.925,51.029,81.093,51.197
	L81.093,51.197z"/>
<path fill="#AE9962" d="M80.208,50.617c-0.152,0.351-0.138,0.839,0.076,1.159c0.152,0.184,0.366,0.274,0.473,0.442
	c-0.274,0.122-0.519-0.046-0.763-0.137c-0.29-0.229-0.458-0.641-0.336-1.038C79.811,50.892,79.964,50.602,80.208,50.617
	L80.208,50.617z"/>
<path fill="#AE9962" d="M74.426,51.456c0.016,0.076,0.092,0.122,0.107,0.184c-0.396,0.045-0.747-0.229-1.205-0.184
	c-0.991,0.016-1.815,0.732-2.228,1.602c-0.016,0.122-0.092,0.198-0.106,0.306c-0.198-0.702-0.016-1.419,0.396-1.953
	c0.564-0.519,1.235-0.854,2.044-0.655C73.862,50.861,74.137,51.136,74.426,51.456L74.426,51.456z"/>
<path fill="#AE9962" d="M88.08,51.456c0.885,0.702,2.151,1.129,3.265,0.626c0.564-0.122,1.022-0.596,1.495-0.885
	c-0.198,0.869-1.099,1.586-1.892,1.906c-1.053,0.352-2.06-0.076-2.822-0.777c-0.427-0.412-0.702-0.916-0.702-1.465
	C87.683,51.014,87.79,51.258,88.08,51.456L88.08,51.456z"/>
<path fill="#AE9962" d="M85.121,51.96c0.487,0.03,0.899-0.122,1.25-0.428c-0.152,0.306-0.396,0.672-0.731,0.915
	c-0.397,0.184-0.977,0.29-1.358,0.031c-0.381-0.184-0.701-0.58-0.777-0.992l0.046-0.579C83.87,51.41,84.434,51.99,85.121,51.96
	L85.121,51.96z"/>
<path fill="#AE9962" d="M70.002,53.576v0.077c-0.289-0.046-0.533-0.443-0.839-0.55c-1.525-1.067-4.012-1.205-5.567-0.152
	c-0.992,0.625-1.648,1.678-2.06,2.639c-0.184-0.259-0.092-0.731-0.062-1.067c0.152-1.419,1.267-2.746,2.594-3.249
	c1.495-0.473,3.401-0.488,4.606,0.579C69.164,52.311,69.759,52.921,70.002,53.576L70.002,53.576z"/>
<path fill="#AE9962" d="M59.461,55.514c-0.167-0.427-0.442-0.839-0.854-1.129c-1.861-0.885-4.363-0.655-6.407-0.335
	c-1.663,0.366-3.372,0.732-4.607,2.09c-0.473,0.564-0.351,1.479-0.106,2.12c0.549,0.931,1.571,1.373,2.594,1.465
	c2.975,0.106,5.781-0.397,8.237-1.679C59.157,57.451,59.706,56.566,59.461,55.514L59.461,55.514z M59.935,53.866
	c0.869,1.525,0.915,3.891-0.184,5.309c-2.349,2.975-6.376,3.967-9.961,2.822c-1.77-0.534-3.28-2.228-3.631-4.027
	c-0.412-2.304,0.58-4.424,2.532-5.599c2.853-1.662,7.398-1.982,10.145,0.138C59.249,52.905,59.691,53.363,59.935,53.866
	L59.935,53.866z"/>
<path fill="#AE9962" d="M77.767,51.35c-0.365,0.137-0.747,0.29-1.067,0.549c-0.32,0.32-0.488,0.717-0.625,1.129l-0.138-0.152
	c-0.076-0.519-0.092-1.114,0.29-1.495c0.305-0.213,0.687-0.488,1.129-0.336C77.493,51.136,77.691,51.167,77.767,51.35L77.767,51.35z
	"/>
<path fill="#AE9962" d="M84.174,53.21c0.458,0.123,0.977-0.061,1.343-0.106c-0.107,0.412-0.61,0.534-0.946,0.732
	c-0.427,0.138-0.809-0.092-1.175-0.229c-0.457-0.428-0.777-0.977-0.579-1.647l0.106-0.29C83.137,52.265,83.442,53.043,84.174,53.21
	L84.174,53.21z"/>
<path fill="#AE9962" d="M78.317,52.143c-0.748,0.428-1.175,1.281-1.038,2.166c-0.229-0.152-0.442-0.442-0.503-0.732
	c-0.106-0.625,0.106-1.159,0.626-1.464c0.274-0.184,0.579-0.107,0.915-0.076V52.143L78.317,52.143z"/>
<path fill="#AE9962" d="M89.849,54.232c0.945,0.046,1.755-0.274,2.44-0.839c-0.091,0.519-0.563,0.991-0.976,1.281
	c-0.992,0.61-2.426,0.474-3.341-0.213c-0.672-0.596-1.19-1.465-0.916-2.35C87.561,53.226,88.583,54.187,89.849,54.232L89.849,54.232
	z"/>
<path fill="#AE9962" d="M75.022,53.058c-1.114-0.03-2.151,0.214-2.822,1.145c-0.229,0.366-0.366,0.763-0.412,1.205
	c-0.183,0.015-0.092-0.214-0.183-0.29c-0.168-0.549-0.168-1.297,0.183-1.754c0.58-0.763,1.449-0.992,2.35-0.916
	C74.472,52.539,74.854,52.707,75.022,53.058L75.022,53.058z"/>
<path fill="#AE9962" d="M83,54.202c0.366,0.229,0.854,0.305,1.312,0.214c-0.092,0.198-0.351,0.351-0.55,0.442
	c-0.442,0.152-0.961,0.045-1.357-0.184c-0.442-0.427-0.656-0.976-0.503-1.617c0.045-0.229,0.183-0.442,0.365-0.579
	C82.161,53.195,82.527,53.82,83,54.202L83,54.202z"/>
<path fill="#AE9962" d="M79.232,52.661c-0.107,0.229-0.381,0.352-0.519,0.58c-0.198,0.534-0.458,1.221-0.152,1.77
	c-0.092,0.106-0.153-0.122-0.244-0.122c-0.26-0.306-0.442-0.641-0.412-1.053C78.011,53.241,78.591,52.646,79.232,52.661
	L79.232,52.661z"/>
<path fill="#AE9962" d="M80.331,52.845c-0.396,0.533-0.626,1.205-0.52,1.906l0.397,0.732c-0.488-0.03-0.885-0.519-1.022-0.961
	c-0.122-0.626,0.138-1.145,0.625-1.495C80.01,53.013,80.101,52.769,80.331,52.845L80.331,52.845z"/>
<path fill="#AE9962" d="M81.276,52.951c-0.244,0.564-0.351,1.388,0.153,1.877c0.183,0.197,0.487,0.457,0.731,0.609
	c-0.549,0.092-1.175-0.061-1.51-0.579c-0.32-0.396-0.184-1.068,0.046-1.465C80.879,53.241,81.017,52.951,81.276,52.951
	L81.276,52.951z"/>
<path fill="#AE9962" d="M70.369,55.011v0.106c-1.479-0.839-3.707-0.793-5.201-0.046c-1.404,0.687-2.64,2.136-2.854,3.661
	c-0.473-1.434,0.062-3.035,1.206-4.088c1.494-1.221,3.966-1.739,5.705-0.702C69.728,54.217,70.034,54.568,70.369,55.011
	L70.369,55.011z"/>
<path fill="#AE9962" d="M88.202,55.59c0.824,0.474,2.014,0.519,2.883,0.107c-0.549,0.854-1.525,1.251-2.562,1.067
	c-0.945-0.106-1.846-0.977-2.12-1.876c-0.168-0.427-0.168-1.068,0-1.495C86.783,54.187,87.317,55.239,88.202,55.59L88.202,55.59z"/>
<path fill="#AE9962" d="M75.785,54.232c-0.122,0.184-0.488,0.092-0.702,0.229c-1.205,0.335-2.044,1.556-2.228,2.745
	c-0.305-0.229-0.32-0.641-0.396-0.991c0-0.915,0.428-1.815,1.312-2.166C74.396,53.79,75.235,53.882,75.785,54.232L75.785,54.232z"/>
<path fill="#AE9962" d="M87.759,57.451c0.656,0.26,1.495,0.214,2.151,0l0.045,0.046c-0.687,0.641-1.678,1.083-2.669,0.732
	c-0.961-0.29-1.724-1.19-1.907-2.166c-0.106-0.504-0.138-1.038,0.03-1.541C85.593,55.788,86.615,56.948,87.759,57.451L87.759,57.451
	z"/>
<path fill="#AE9962" d="M76.776,55.193c-0.961,0.198-1.906,1.114-2.166,2.044c-0.152,0.58-0.046,1.236,0.183,1.755
	c-0.671-0.519-1.052-1.281-0.869-2.228c0.061-0.366,0.26-0.687,0.473-0.991c0.58-0.717,1.479-0.991,2.334-0.702L76.776,55.193
	L76.776,55.193z"/>
<path fill="#AE9962" d="M71.101,56.719c-0.854-0.198-1.998-0.427-2.975-0.213c-1.907,0.411-3.677,2.104-4.21,3.996
	c0.03,0.412-0.184,0.732-0.107,1.16c-0.198-0.016-0.229-0.382-0.366-0.58c-0.442-1.251-0.046-2.594,0.656-3.585
	c1.281-1.403,3.036-2.472,5.019-2.06C69.85,55.712,70.552,56.078,71.101,56.719L71.101,56.719z"/>
<path fill="#AE9962" d="M84.464,55.438c-0.016,1.312,0.412,2.548,1.571,3.234c0.579,0.32,1.251,0.427,1.938,0.473
	c-0.672,0.534-1.815,0.534-2.594,0.138c-1.067-0.58-1.51-1.739-1.388-2.884c0.076-0.335,0.259-0.641,0.396-0.961H84.464
	L84.464,55.438z"/>
<path fill="#AE9962" d="M78.087,55.804c-1.22,0.671-1.922,1.953-1.754,3.341c0.062,0.366,0.244,0.671,0.336,1.022
	c-0.306,0.015-0.55-0.397-0.778-0.626c-0.503-0.671-0.579-1.678-0.214-2.456c0.458-0.823,1.373-1.449,2.334-1.312
	C78.042,55.788,78.057,55.819,78.087,55.804L78.087,55.804z"/>
<path fill="#AE9962" d="M84.937,60.06c0.244,0.138,0.564,0.168,0.763,0.32c-0.793,0.29-1.647,0.016-2.258-0.473
	c-0.899-0.747-0.991-2.014-0.701-3.066c0.076-0.243,0.168-0.488,0.366-0.671C82.985,57.771,83.534,59.312,84.937,60.06L84.937,60.06
	z"/>
<path fill="#AE9962" d="M79.338,56.292c-0.137,0.274-0.457,0.473-0.625,0.732c-0.641,0.869-0.672,2.334-0.107,3.249
	c0.153,0.274,0.352,0.427,0.504,0.702c-0.702-0.275-1.556-0.84-1.785-1.617c-0.32-1.007,0-2.06,0.84-2.7
	C78.531,56.475,78.881,56.246,79.338,56.292L79.338,56.292z"/>
<path fill="#AE9962" d="M82.192,56.292c-0.763,1.022-0.626,2.594,0.03,3.615c0.335,0.442,0.763,0.748,1.22,1.022
	c-0.885,0.092-1.693-0.306-2.242-1.053c-0.427-0.793-0.534-1.999,0.046-2.746C81.566,56.841,81.749,56.353,82.192,56.292
	L82.192,56.292z"/>
<path fill="#AE9962" d="M81.017,56.398c-0.9,0.854-1.282,2.151-0.84,3.326c0.229,0.519,0.626,0.976,1.022,1.388
	c-0.717-0.046-1.541-0.519-1.83-1.281c-0.412-0.945-0.229-2.074,0.441-2.853C80.163,56.658,80.574,56.384,81.017,56.398
	L81.017,56.398z"/>
<path fill="#AE9962" d="M72.566,58.336c-0.687-0.152-1.602-0.244-2.426-0.152c-1.846,0.229-3.569,1.968-4.088,3.661
	c-0.336,0.9-0.336,2.075,0,2.975c-1.099-0.991-1.343-2.67-0.885-4.073c0.671-1.77,2.577-3.341,4.546-3.401
	C70.781,57.375,71.833,57.619,72.566,58.336L72.566,58.336z"/>
<path fill="#AE9962" d="M61.948,60.609c0.687,1.495,1.648,2.867,2.594,4.24c-0.03,0.274-0.336,0.366-0.503,0.55
	c-0.458-0.184-0.824-0.672-1.404-0.442c-0.655,0.213-1.189,0.731-1.784,1.098l-5.721,4.729v0.076c0.534,0,0.991-0.412,1.511-0.55
	c3.065-1.22,6.07-2.593,9.106-3.89c0.229-0.092,0.336,0.184,0.442,0.306c-0.915,3.051-2.074,6.01-3.066,9.03
	c-0.32,0.854-0.595,1.724-0.854,2.608l0.045,0.031c1.77-2.548,3.524-5.156,5.126-7.796c0.305-0.457,0.229-1.22-0.076-1.647
	c-0.152-0.122-0.168-0.335-0.03-0.473c0.137-0.137,0.198-0.412,0.427-0.412c0.961,0.809,1.968,1.449,3.005,2.06
	c-0.076,0.274-0.198,0.549-0.366,0.809c-0.503-0.168-1.098-0.061-1.54,0.183l-0.58,0.61l-5.125,7.444
	c-0.244,0.382-0.474,0.84-0.336,1.343c0.168,0.442,0.396,0.854,0.809,1.144c-0.046,0.306-0.168,0.565-0.366,0.809h-0.214
	c-1.373-0.991-2.745-1.86-3.997-3.051c0.87-2.654,1.739-5.309,2.563-7.979c0.122-0.305,0.244-0.609,0.366-0.915
	c0.092-0.351,0.198-0.687,0.259-1.053h-0.29c-2.943,1.267-5.934,2.441-8.893,3.661c-1.099-1.296-1.785-2.776-2.608-4.18
	c0.137-0.244,0.381-0.335,0.594-0.442c0.382,0.428,0.932,0.702,1.495,0.474c0.9-0.382,1.679-1.068,2.487-1.679l5.751-4.424
	c0.457-0.534,0.519-1.281,0.473-1.983C61.521,60.868,61.659,60.456,61.948,60.609L61.948,60.609z"/>
<path fill="#AE9962" d="M56.487,63.492c0.274,0.396,0.274,0.977,0,1.357c-0.351,0.382-0.809,0.656-1.357,0.474
	c-0.412-0.077-0.778-0.474-0.915-0.87c-0.03-0.412,0.046-0.747,0.229-1.067c0.351-0.352,0.793-0.595,1.312-0.442
	C56.03,63.065,56.32,63.218,56.487,63.492L56.487,63.492z"/>
<path fill="#AE9962" d="M102.221,65.872l7.246,6.636c0.396,0.214,0.809,0.488,1.312,0.32c0.366-0.046,0.641-0.336,0.961-0.503
	c0.26,0.167,0.687,0.396,0.687,0.731c-1.556,1.739-3.143,3.463-4.896,5.156c-0.29-0.122-0.626-0.411-0.702-0.732
	c0.458-0.411,0.763-0.991,0.626-1.647l-0.184-0.366c-2.35-2.486-5.187-5.232-7.505-7.581c-0.504-0.336-1.159-0.564-1.8-0.366
	c-0.565,0.198-1.054,0.671-1.236,1.251c-0.29,0.991,0.138,1.876,0.55,2.669l4.103,5.6c0.732,0.93,1.648,2.593,3.143,2.089
	c0.107-0.03,0.168-0.091,0.29-0.076c0.183,0.306,0.564,0.534,0.549,0.885c-1.25,0.992-2.578,1.831-3.92,2.64
	c-0.351-0.016-0.503-0.519-0.687-0.809c0.351-0.488,0.87-0.946,0.656-1.617c-0.168-0.61-0.488-1.189-0.885-1.709
	c-1.435-2.044-2.884-4.042-4.317-6.116c0.076-0.244-0.244-0.244-0.29-0.442c-0.579-0.962-0.854-2.243-0.519-3.402
	c0.534-1.8,2.501-3.387,4.363-3.585C100.71,64.896,101.473,65.384,102.221,65.872L102.221,65.872z"/>
<path fill="#AE9962" d="M93.328,69.716c0.885,1.068,1.922,2.289,2.745,3.448c-0.122,0.29-0.427,0.564-0.731,0.625
	c-1.373-1.144-2.853-2.471-4.76-1.876c-0.732,0.259-1.449,1.037-1.465,1.83c-0.03,0.274,0.016,0.519,0.107,0.732
	c0.579,1.907,2.669,2.212,4.316,2.563c2.06,0.305,4.667,0.823,5.202,3.264c0.458,1.511,0.092,3.219-1.099,4.317
	c-1.235,1.175-2.928,1.602-4.728,1.434c-0.519-0.229-0.9,0.229-1.281,0.366c-0.732-1.388-1.465-2.761-2.197-4.134
	c-0.076-0.198,0.152-0.26,0.26-0.336l0.579-0.213c1.16,1.464,2.731,3.249,4.882,2.853c0.336-0.046,0.671-0.184,0.87-0.474
	c0.396-0.198,0.625-0.641,0.701-1.067c0.062-0.671-0.198-1.221-0.625-1.678c-2.258-1.77-5.66-0.732-7.796-2.792
	c-1.418-1.205-1.754-3.295-1.144-5.019c0.763-2.212,3.143-3.143,5.278-3.356C92.748,70.082,93.007,69.838,93.328,69.716
	L93.328,69.716z"/>
<path fill="#AE9962" d="M76.958,73.271c0.732,2.166-0.243,4.271-0.442,6.377c-0.243,1.937-0.701,3.828-0.731,5.812
	c0.152,0.671,0.763,0.9,1.251,1.251l-0.122,0.763l-0.107,0.076c-2.272-0.336-4.484-0.854-6.59-1.602
	c0.092-0.351,0.106-0.732,0.29-1.037c0.61,0.198,1.235,0.015,1.693-0.396c0.823-1.114,0.777-2.594,1.175-3.875
	c0.32-2.273,1.144-4.378,1.129-6.743c-0.062-0.487-0.412-0.93-0.84-1.204c-0.503-0.306-1.312-0.382-1.83-0.077
	c-0.961,0.626-1.221,1.724-1.647,2.67c-0.854,2.349-1.983,4.576-2.562,7.032c-0.062,0.793,0.32,1.403,0.869,1.938
	c0.03,0.274-0.168,0.549-0.244,0.809c-0.9-0.184-1.739-0.763-2.608-1.129c-0.626-0.366-1.236-0.732-1.861-1.099
	c0.138-0.274,0.214-0.579,0.442-0.809c0.488,0.184,1.159,0.138,1.602-0.152c1.251-1.067,1.449-2.639,2.09-3.981
	c1.297-2.624,1.709-7.459,5.889-6.896C75.052,71.303,76.501,71.959,76.958,73.271L76.958,73.271z"/>
<path fill="#AE9962" d="M86.92,73.057c-0.442,0.168-0.961,0.504-1.099,0.992c-0.076,1.938,0.382,3.768,0.549,5.675
	c0.336,1.876,0.321,3.905,0.87,5.705c0.32,0.534,0.945,0.945,1.647,0.885c0.152,0.26,0.138,0.595,0.184,0.915l-0.077,0.062
	c-3.173,0.671-6.712,0.563-10.129,0.519c-0.396-0.076-0.168-0.534-0.335-0.763c-0.184-1.327-0.366-2.64-0.55-3.967
	c0.214-0.152,0.488-0.152,0.763-0.137c0.274,1.495,1.465,3.035,2.975,3.508c0.656,0.184,1.389,0.29,2.12,0.184
	c-0.076-1.815-0.152-3.737-0.442-5.522c-0.808-0.137-1.556,0.458-1.937,1.099c-0.168,0.351-0.244,0.732-0.366,1.099
	c-0.244,0.03-0.61,0.121-0.809-0.076c-0.046-1.693-0.046-3.464-0.138-5.096c-0.015-0.458,0.55-0.168,0.839-0.244
	c0.122,0.595,0.32,1.235,0.946,1.571c0.381,0.214,0.945,0.305,1.357,0.106c-0.138-1.754-0.152-3.539-0.396-5.232
	c-0.351-0.366-0.931-0.076-1.403-0.106c-1.525,0.184-2.975,1.617-3.402,3.066c-0.259,0.046-0.533-0.062-0.763-0.183
	c0.046-0.809,0.306-1.633,0.504-2.411c0.213-0.701,0.305-1.495,0.625-2.12c2.73,0.336,5.705,0.184,8.283-0.412
	C86.905,72.416,86.844,72.768,86.92,73.057L86.92,73.057z"/>
<path fill="#AE9962" d="M0,109.693V97.995h6.057v1.979h-3.61v2.741h3.263v1.962H2.446v3.02h3.662v1.996H0z"/>
<path fill="#AE9962" d="M12.446,109.832c-2.863,0-4.13-1.302-4.13-3.923v-7.914h2.446v7.794c0,1.475,0.435,2.082,1.788,2.082
	c1.423,0,1.771-0.729,1.771-2.065v-7.811h2.447v7.603C16.769,108.131,15.57,109.832,12.446,109.832z"/>
<path fill="#AE9962" d="M24.756,109.693l-1.909-4.946H21.84v4.946h-2.412v-11.68c1.024-0.035,2.464-0.035,3.593-0.035
	c2.881,0,4.096,1.198,4.096,3.229c0,1.405-0.66,2.552-1.909,3.002l2.326,5.484H24.756z M22.829,99.888
	c-0.312,0-0.659,0.018-0.989,0.034v2.951c0.33,0,0.643,0,0.973,0c1.439,0,1.805-0.712,1.805-1.527
	C24.617,100.46,24.322,99.888,22.829,99.888z"/>
<path fill="#AE9962" d="M34.027,109.867h-0.122c-3.731,0-4.737-2.082-4.737-5.97c0-4.305,1.787-6.075,4.79-6.075h0.121
	c3.731,0,4.738,2.117,4.738,5.987C38.817,108.114,37.029,109.867,34.027,109.867z M33.992,99.836c-1.684,0-2.291,1.214-2.291,4.009
	c0,2.639,0.521,3.991,2.291,3.991c1.667,0,2.291-1.232,2.291-4.009C36.283,101.188,35.763,99.836,33.992,99.836z"/>
<path fill="#AE9962" d="M44.584,105.632c-0.348,0-0.677,0-1.007-0.017v4.078h-2.465v-11.68c0.938-0.035,2.5-0.035,3.559-0.035
	c2.933,0,4.252,1.284,4.252,3.766C48.923,103.983,47.587,105.632,44.584,105.632z M44.602,99.905c-0.33,0-0.729,0-1.024,0.017v3.749
	c0.243,0.018,0.538,0.035,0.989,0.035c1.406,0,1.857-0.677,1.857-1.909C46.424,100.547,46.06,99.905,44.602,99.905z"/>
<path fill="#AE9962" d="M50.904,109.693V97.995h6.058v1.979h-3.61v2.741h3.263v1.962h-3.263v3.02h3.662v1.996H50.904z"/>
<path fill="#AE9962" d="M64.879,109.693l-0.468-2.065H61.2l-0.486,2.065h-2.378l2.776-11.698h3.541l2.76,11.698H64.879z
	 M62.814,100.217h-0.035l-1.268,5.485h2.586L62.814,100.217z"/>
<path fill="#AE9962" d="M74.967,109.693l-3.576-7.602v7.602h-2.203V97.995h2.812l3.437,7.272v-7.272h2.204v11.698H74.967z"/>
<path fill="#AE9962" d="M94.393,109.693l-0.521-8.678h-0.018l-2.343,8.678h-2.03l-2.36-8.678h-0.018l-0.521,8.678H84.31
	l0.851-11.698h3.401l2.065,7.446h0.018l2.03-7.446h3.245l0.851,11.698H94.393z"/>
<path fill="#AE9962" d="M103.146,109.832c-2.863,0-4.131-1.302-4.131-3.923v-7.914h2.447v7.794c0,1.475,0.434,2.082,1.788,2.082
	c1.423,0,1.771-0.729,1.771-2.065v-7.811h2.447v7.603C107.468,108.131,106.271,109.832,103.146,109.832z"/>
<path fill="#AE9962" d="M113.077,109.867c-1.163,0-2.257-0.295-3.437-1.007l0.799-1.788c0.885,0.469,1.734,0.764,2.481,0.764
	c0.972,0,1.475-0.485,1.475-1.318c0-2.03-4.721-1.787-4.721-5.415c0-2.048,1.459-3.28,3.662-3.28c1.111,0,2.205,0.312,3.177,0.92
	l-0.781,1.684c-0.781-0.382-1.562-0.643-2.238-0.643c-0.955,0-1.389,0.469-1.389,1.163c0,1.944,4.789,1.753,4.789,5.38
	C116.895,108.687,115.229,109.867,113.077,109.867z"/>
<path fill="#AE9962" d="M118.912,109.693V97.995h6.057v1.979h-3.61v2.741h3.264v1.962h-3.264v3.02h3.663v1.996H118.912z"/>
<path fill="#AE9962" d="M131.359,109.832c-2.864,0-4.131-1.302-4.131-3.923v-7.914h2.447v7.794c0,1.475,0.435,2.082,1.787,2.082
	c1.424,0,1.771-0.729,1.771-2.065v-7.811h2.447v7.603C135.681,108.131,134.482,109.832,131.359,109.832z"/>
<path fill="#AE9962" d="M148.024,109.693l-0.521-8.678h-0.018l-2.343,8.678h-2.03l-2.36-8.678h-0.019l-0.521,8.678h-2.273
	l0.851-11.698h3.402l2.064,7.446h0.019l2.03-7.446h3.245l0.851,11.698H148.024z"/>
<path fill="#AE9962" d="M12.603,130.702h-0.121c-3.731,0-4.738-2.083-4.738-5.971c0-4.304,1.787-6.074,4.79-6.074h0.121
	c3.731,0,4.738,2.116,4.738,5.987C17.393,128.948,15.605,130.702,12.603,130.702z M12.568,120.67c-1.684,0-2.291,1.215-2.291,4.01
	c0,2.638,0.521,3.991,2.291,3.991c1.666,0,2.291-1.232,2.291-4.01C14.859,122.023,14.338,120.67,12.568,120.67z"/>
<path fill="#AE9962" d="M22.135,120.826v2.829h2.985v1.996h-2.985v4.877h-2.446V118.83h5.744v1.996H22.135z"/>
<path fill="#AE9962" d="M35.886,120.878v9.65h-2.465v-9.65h-2.343v-2.048h7.15v2.048H35.886z"/>
<path fill="#AE9962" d="M46.041,130.528v-4.999h-3.593v4.999h-2.465V118.83h2.465v4.652h3.593v-4.652h2.447v11.698H46.041z"/>
<path fill="#AE9962" d="M51.147,130.528V118.83h6.058v1.979h-3.61v2.742h3.264v1.962h-3.264v3.02h3.662v1.996H51.147z"/>
<path fill="#AE9962" d="M68.248,126.085v4.443h-2.291v-4.443l-3.264-7.255h2.69l1.076,2.726l0.694,1.839l0.659-1.788l1.059-2.776
	h2.569L68.248,126.085z"/>
<path fill="#AE9962" d="M72.902,130.528V118.83h6.057v1.979H75.35v2.742h3.263v1.962H75.35v3.02h3.662v1.996H72.902z"/>
<path fill="#AE9962" d="M86.877,130.528l-0.469-2.065h-3.211l-0.486,2.065h-2.378l2.777-11.698h3.54l2.761,11.698H86.877z
	 M84.812,121.052h-0.035l-1.267,5.485h2.586L84.812,121.052z"/>
<path fill="#AE9962" d="M96.513,130.528l-1.909-4.946h-1.007v4.946h-2.412v-11.681c1.024-0.035,2.464-0.035,3.593-0.035
	c2.881,0,4.096,1.198,4.096,3.229c0,1.406-0.66,2.552-1.909,3.003l2.326,5.484H96.513z M94.586,120.723
	c-0.312,0-0.659,0.017-0.989,0.034v2.951c0.33,0,0.643,0,0.973,0c1.439,0,1.805-0.713,1.805-1.527
	C96.374,121.295,96.078,120.723,94.586,120.723z"/>
<path fill="#AE9962" d="M105.229,130.528v-1.857l2.674-2.847c1.284-1.354,1.788-2.342,1.788-3.21c0-0.903-0.435-1.476-1.476-1.476
	c-0.643,0-1.371,0.295-2.239,0.781l-0.747-1.666c1.163-0.781,2.326-1.181,3.559-1.181c2.309,0,3.454,1.216,3.454,3.177
	c0,1.405-0.538,2.707-2.117,4.217l-2.03,2.014h4.477v2.048H105.229z"/>
<path fill="#AE9962" d="M118.754,130.702c-3.662,0-4.218-2.968-4.218-5.814c0-3.021,0.989-5.814,4.46-5.814
	c3.646,0,4.235,2.933,4.235,5.814C123.231,127.838,122.295,130.702,118.754,130.702z M118.893,121.087
	c-1.458,0-1.84,1.613-1.84,3.801c0,2.204,0.382,3.8,1.84,3.8c1.441,0,1.822-1.631,1.822-3.8
	C120.715,122.7,120.334,121.087,118.893,121.087z"/>
<path fill="#AE9962" d="M129.397,130.702c-3.662,0-4.218-2.968-4.218-5.814c0-3.021,0.989-5.814,4.46-5.814
	c3.646,0,4.235,2.933,4.235,5.814C133.875,127.838,132.938,130.702,129.397,130.702z M129.536,121.087
	c-1.458,0-1.84,1.613-1.84,3.801c0,2.204,0.382,3.8,1.84,3.8c1.441,0,1.822-1.631,1.822-3.8
	C131.358,122.7,130.978,121.087,129.536,121.087z"/>
<path fill="#AE9962" d="M138.912,130.528h-2.673l3.784-9.199h-4.392v-2.083h6.925v1.841L138.912,130.528z"/>
</svg>
